<svg width="113" height="47" viewBox="0 0 113 47" fill="none" xmlns="http://www.w3.org/2000/svg">
<g filter="url(#filter0_d_10_5)">
<rect x="6" y="2" width="101" height="38" rx="12" fill="#1E1E1E" shape-rendering="crispEdges"/>
<rect x="5.5" y="1.5" width="102" height="39" rx="12.5" stroke="white" stroke-opacity="0.29" shape-rendering="crispEdges"/>
</g>
<path d="M38.9328 22.2969H40.8859C40.8234 23.0417 40.6151 23.7057 40.2609 24.2891C39.9068 24.8672 39.4094 25.3229 38.7687 25.6562C38.1281 25.9896 37.3495 26.1562 36.4328 26.1562C35.7297 26.1562 35.0969 26.0312 34.5344 25.7812C33.9719 25.526 33.4901 25.1667 33.0891 24.7031C32.688 24.2344 32.3807 23.6693 32.1672 23.0078C31.9589 22.3464 31.8547 21.6068 31.8547 20.7891V19.8438C31.8547 19.026 31.9615 18.2865 32.175 17.625C32.3937 16.9635 32.7062 16.3984 33.1125 15.9297C33.5187 15.4557 34.0057 15.0938 34.5734 14.8438C35.1464 14.5938 35.7896 14.4688 36.5031 14.4688C37.4094 14.4688 38.175 14.6354 38.8 14.9688C39.425 15.3021 39.9094 15.763 40.2531 16.3516C40.6021 16.9401 40.8156 17.6146 40.8937 18.375H38.9406C38.8885 17.8854 38.774 17.4661 38.5969 17.1172C38.425 16.7682 38.1698 16.5026 37.8312 16.3203C37.4927 16.1328 37.05 16.0391 36.5031 16.0391C36.0552 16.0391 35.6646 16.1224 35.3312 16.2891C34.9979 16.4557 34.7193 16.7005 34.4953 17.0234C34.2714 17.3464 34.1021 17.7448 33.9875 18.2188C33.8781 18.6875 33.8234 19.224 33.8234 19.8281V20.7891C33.8234 21.362 33.8729 21.8828 33.9719 22.3516C34.076 22.8151 34.2323 23.2135 34.4406 23.5469C34.6542 23.8802 34.925 24.138 35.2531 24.3203C35.5812 24.5026 35.9745 24.5938 36.4328 24.5938C36.9901 24.5938 37.4406 24.5052 37.7844 24.3281C38.1333 24.151 38.3964 23.8932 38.5734 23.5547C38.7557 23.2109 38.8755 22.7917 38.9328 22.2969ZM42.2703 21.8672V21.6875C42.2703 21.0781 42.3589 20.513 42.5359 19.9922C42.713 19.4661 42.9682 19.0104 43.3016 18.625C43.6401 18.2344 44.0516 17.9323 44.5359 17.7188C45.0255 17.5 45.5776 17.3906 46.1922 17.3906C46.812 17.3906 47.3641 17.5 47.8484 17.7188C48.338 17.9323 48.7521 18.2344 49.0906 18.625C49.4292 19.0104 49.687 19.4661 49.8641 19.9922C50.0411 20.513 50.1297 21.0781 50.1297 21.6875V21.8672C50.1297 22.4766 50.0411 23.0417 49.8641 23.5625C49.687 24.0833 49.4292 24.5391 49.0906 24.9297C48.7521 25.3151 48.3406 25.6172 47.8562 25.8359C47.3719 26.0495 46.8224 26.1562 46.2078 26.1562C45.588 26.1562 45.0333 26.0495 44.5437 25.8359C44.0594 25.6172 43.6479 25.3151 43.3094 24.9297C42.9708 24.5391 42.713 24.0833 42.5359 23.5625C42.3589 23.0417 42.2703 22.4766 42.2703 21.8672ZM44.1531 21.6875V21.8672C44.1531 22.2474 44.1922 22.6068 44.2703 22.9453C44.3484 23.2839 44.4708 23.5807 44.6375 23.8359C44.8042 24.0911 45.0177 24.2917 45.2781 24.4375C45.5385 24.5833 45.8484 24.6562 46.2078 24.6562C46.5568 24.6562 46.8589 24.5833 47.1141 24.4375C47.3745 24.2917 47.588 24.0911 47.7547 23.8359C47.9214 23.5807 48.0437 23.2839 48.1219 22.9453C48.2052 22.6068 48.2469 22.2474 48.2469 21.8672V21.6875C48.2469 21.3125 48.2052 20.9583 48.1219 20.625C48.0437 20.2865 47.9187 19.987 47.7469 19.7266C47.5802 19.4661 47.3667 19.263 47.1062 19.1172C46.851 18.9661 46.5464 18.8906 46.1922 18.8906C45.838 18.8906 45.5307 18.9661 45.2703 19.1172C45.0151 19.263 44.8042 19.4661 44.6375 19.7266C44.4708 19.987 44.3484 20.2865 44.2703 20.625C44.1922 20.9583 44.1531 21.3125 44.1531 21.6875ZM53.7562 14V26H51.8656V14H53.7562ZM59.0062 17.5469L55.3266 21.625L53.3109 23.6875L52.8187 22.0938L54.3422 20.2109L56.7328 17.5469H59.0062ZM57.1391 26L54.3969 22.0312L55.5844 20.7109L59.3187 26H57.1391ZM64.2266 17.5469V18.9219H59.4609V17.5469H64.2266ZM60.8359 15.4766H62.7188V23.6641C62.7188 23.9245 62.7552 24.125 62.8281 24.2656C62.9062 24.401 63.013 24.4922 63.1484 24.5391C63.2839 24.5859 63.4427 24.6094 63.625 24.6094C63.7552 24.6094 63.8802 24.6016 64 24.5859C64.1198 24.5703 64.2161 24.5547 64.2891 24.5391L64.2969 25.9766C64.1406 26.0234 63.9583 26.0651 63.75 26.1016C63.5469 26.138 63.3125 26.1562 63.0469 26.1562C62.6146 26.1562 62.2318 26.0807 61.8984 25.9297C61.5651 25.7734 61.3047 25.5208 61.1172 25.1719C60.9297 24.8229 60.8359 24.3594 60.8359 23.7812V15.4766ZM70.5953 24.3047V20.2734C70.5953 19.9714 70.5406 19.7109 70.4312 19.4922C70.3219 19.2734 70.1552 19.1042 69.9312 18.9844C69.7125 18.8646 69.4365 18.8047 69.1031 18.8047C68.7958 18.8047 68.5302 18.8568 68.3062 18.9609C68.0823 19.0651 67.9078 19.2057 67.7828 19.3828C67.6578 19.5599 67.5953 19.7604 67.5953 19.9844H65.7203C65.7203 19.651 65.801 19.3281 65.9625 19.0156C66.124 18.7031 66.3583 18.4245 66.6656 18.1797C66.9729 17.9349 67.3401 17.7422 67.7672 17.6016C68.1943 17.4609 68.6734 17.3906 69.2047 17.3906C69.8401 17.3906 70.4026 17.4974 70.8922 17.7109C71.387 17.9245 71.775 18.2474 72.0562 18.6797C72.3427 19.1068 72.4859 19.6432 72.4859 20.2891V24.0469C72.4859 24.4323 72.512 24.7786 72.5641 25.0859C72.6214 25.388 72.7021 25.651 72.8062 25.875V26H70.8766C70.788 25.7969 70.7177 25.5391 70.6656 25.2266C70.6187 24.9089 70.5953 24.6016 70.5953 24.3047ZM70.8687 20.8594L70.8844 22.0234H69.5328C69.1839 22.0234 68.8766 22.0573 68.6109 22.125C68.3453 22.1875 68.124 22.2812 67.9469 22.4062C67.7698 22.5312 67.637 22.6823 67.5484 22.8594C67.4599 23.0365 67.4156 23.237 67.4156 23.4609C67.4156 23.6849 67.4677 23.8906 67.5719 24.0781C67.676 24.2604 67.8271 24.4036 68.025 24.5078C68.2281 24.612 68.4729 24.6641 68.7594 24.6641C69.1448 24.6641 69.4807 24.5859 69.7672 24.4297C70.0589 24.2682 70.288 24.0729 70.4547 23.8438C70.6214 23.6094 70.7099 23.388 70.7203 23.1797L71.3297 24.0156C71.2672 24.2292 71.1604 24.4583 71.0094 24.7031C70.8583 24.9479 70.6604 25.1823 70.4156 25.4062C70.176 25.625 69.887 25.8047 69.5484 25.9453C69.2151 26.0859 68.8297 26.1562 68.3922 26.1562C67.8401 26.1562 67.3479 26.0469 66.9156 25.8281C66.4833 25.6042 66.1448 25.3047 65.9 24.9297C65.6552 24.5495 65.5328 24.1198 65.5328 23.6406C65.5328 23.1927 65.6161 22.7969 65.7828 22.4531C65.9547 22.1042 66.2047 21.8125 66.5328 21.5781C66.8661 21.3438 67.2724 21.1667 67.7516 21.0469C68.2307 20.9219 68.7776 20.8594 69.3922 20.8594H70.8687ZM76.6203 17.5469V26H74.7297V17.5469H76.6203ZM74.6047 15.3281C74.6047 15.0417 74.6984 14.8047 74.8859 14.6172C75.0786 14.4245 75.3443 14.3281 75.6828 14.3281C76.0161 14.3281 76.2792 14.4245 76.4719 14.6172C76.6646 14.8047 76.7609 15.0417 76.7609 15.3281C76.7609 15.6094 76.6646 15.8438 76.4719 16.0312C76.2792 16.2188 76.0161 16.3125 75.6828 16.3125C75.3443 16.3125 75.0786 16.2188 74.8859 16.0312C74.6984 15.8438 74.6047 15.6094 74.6047 15.3281ZM80.8484 14V26H78.9578V14H80.8484Z" fill="white"/>
<defs>
<filter id="filter0_d_10_5" x="0.9" y="0.9" width="111.2" height="48.2" filterUnits="userSpaceOnUse" color-interpolation-filters="sRGB">
<feFlood flood-opacity="0" result="BackgroundImageFix"/>
<feColorMatrix in="SourceAlpha" type="matrix" values="0 0 0 0 0 0 0 0 0 0 0 0 0 0 0 0 0 0 127 0" result="hardAlpha"/>
<feMorphology radius="4" operator="erode" in="SourceAlpha" result="effect1_dropShadow_10_5"/>
<feOffset dy="4"/>
<feGaussianBlur stdDeviation="4.05"/>
<feComposite in2="hardAlpha" operator="out"/>
<feColorMatrix type="matrix" values="0 0 0 0 1 0 0 0 0 1 0 0 0 0 1 0 0 0 0.44 0"/>
<feBlend mode="normal" in2="BackgroundImageFix" result="effect1_dropShadow_10_5"/>
<feBlend mode="normal" in="SourceGraphic" in2="effect1_dropShadow_10_5" result="shape"/>
</filter>
</defs>
</svg>
