<svg width="113" height="47" viewBox="0 0 113 47" fill="none" xmlns="http://www.w3.org/2000/svg">
<g filter="url(#filter0_d_10_4)">
<rect x="6" y="2" width="101" height="38" rx="12" fill="#1E1E1E" shape-rendering="crispEdges"/>
<rect x="5.5" y="1.5" width="102" height="39" rx="12.5" stroke="white" stroke-opacity="0.29" shape-rendering="crispEdges"/>
</g>
<path d="M23.4375 22.2969H25.3906C25.3281 23.0417 25.1198 23.7057 24.7656 24.2891C24.4115 24.8672 23.9141 25.3229 23.2734 25.6562C22.6328 25.9896 21.8542 26.1562 20.9375 26.1562C20.2344 26.1562 19.6016 26.0312 19.0391 25.7812C18.4766 25.526 17.9948 25.1667 17.5938 24.7031C17.1927 24.2344 16.8854 23.6693 16.6719 23.0078C16.4635 22.3464 16.3594 21.6068 16.3594 20.7891V19.8438C16.3594 19.026 16.4661 18.2865 16.6797 17.625C16.8984 16.9635 17.2109 16.3984 17.6172 15.9297C18.0234 15.4557 18.5104 15.0938 19.0781 14.8438C19.651 14.5938 20.2943 14.4688 21.0078 14.4688C21.9141 14.4688 22.6797 14.6354 23.3047 14.9688C23.9297 15.3021 24.4141 15.763 24.7578 16.3516C25.1068 16.9401 25.3203 17.6146 25.3984 18.375H23.4453C23.3932 17.8854 23.2786 17.4661 23.1016 17.1172C22.9297 16.7682 22.6745 16.5026 22.3359 16.3203C21.9974 16.1328 21.5547 16.0391 21.0078 16.0391C20.5599 16.0391 20.1693 16.1224 19.8359 16.2891C19.5026 16.4557 19.224 16.7005 19 17.0234C18.776 17.3464 18.6068 17.7448 18.4922 18.2188C18.3828 18.6875 18.3281 19.224 18.3281 19.8281V20.7891C18.3281 21.362 18.3776 21.8828 18.4766 22.3516C18.5807 22.8151 18.737 23.2135 18.9453 23.5469C19.1589 23.8802 19.4297 24.138 19.7578 24.3203C20.0859 24.5026 20.4792 24.5938 20.9375 24.5938C21.4948 24.5938 21.9453 24.5052 22.2891 24.3281C22.638 24.151 22.901 23.8932 23.0781 23.5547C23.2604 23.2109 23.3802 22.7917 23.4375 22.2969ZM31.9 24.3047V20.2734C31.9 19.9714 31.8453 19.7109 31.7359 19.4922C31.6266 19.2734 31.4599 19.1042 31.2359 18.9844C31.0172 18.8646 30.7411 18.8047 30.4078 18.8047C30.1005 18.8047 29.8349 18.8568 29.6109 18.9609C29.387 19.0651 29.2125 19.2057 29.0875 19.3828C28.9625 19.5599 28.9 19.7604 28.9 19.9844H27.025C27.025 19.651 27.1057 19.3281 27.2672 19.0156C27.4286 18.7031 27.663 18.4245 27.9703 18.1797C28.2776 17.9349 28.6448 17.7422 29.0719 17.6016C29.499 17.4609 29.9781 17.3906 30.5094 17.3906C31.1448 17.3906 31.7073 17.4974 32.1969 17.7109C32.6917 17.9245 33.0797 18.2474 33.3609 18.6797C33.6474 19.1068 33.7906 19.6432 33.7906 20.2891V24.0469C33.7906 24.4323 33.8167 24.7786 33.8687 25.0859C33.926 25.388 34.0068 25.651 34.1109 25.875V26H32.1812C32.0927 25.7969 32.0224 25.5391 31.9703 25.2266C31.9234 24.9089 31.9 24.6016 31.9 24.3047ZM32.1734 20.8594L32.1891 22.0234H30.8375C30.4885 22.0234 30.1812 22.0573 29.9156 22.125C29.65 22.1875 29.4286 22.2812 29.2516 22.4062C29.0745 22.5312 28.9417 22.6823 28.8531 22.8594C28.7646 23.0365 28.7203 23.237 28.7203 23.4609C28.7203 23.6849 28.7724 23.8906 28.8766 24.0781C28.9807 24.2604 29.1318 24.4036 29.3297 24.5078C29.5328 24.612 29.7776 24.6641 30.0641 24.6641C30.4495 24.6641 30.7854 24.5859 31.0719 24.4297C31.3635 24.2682 31.5927 24.0729 31.7594 23.8438C31.926 23.6094 32.0146 23.388 32.025 23.1797L32.6344 24.0156C32.5719 24.2292 32.4651 24.4583 32.3141 24.7031C32.163 24.9479 31.9651 25.1823 31.7203 25.4062C31.4807 25.625 31.1917 25.8047 30.8531 25.9453C30.5198 26.0859 30.1344 26.1562 29.6969 26.1562C29.1448 26.1562 28.6526 26.0469 28.2203 25.8281C27.788 25.6042 27.4495 25.3047 27.2047 24.9297C26.9599 24.5495 26.8375 24.1198 26.8375 23.6406C26.8375 23.1927 26.9208 22.7969 27.0875 22.4531C27.2594 22.1042 27.5094 21.8125 27.8375 21.5781C28.1708 21.3438 28.5771 21.1667 29.0562 21.0469C29.5354 20.9219 30.0823 20.8594 30.6969 20.8594H32.1734ZM38.4562 26H36.5734V16.7344C36.5734 16.1042 36.6906 15.5755 36.925 15.1484C37.1646 14.7161 37.5057 14.3906 37.9484 14.1719C38.3911 13.9479 38.9146 13.8359 39.5187 13.8359C39.7062 13.8359 39.8911 13.849 40.0734 13.875C40.2557 13.8958 40.4328 13.9297 40.6047 13.9766L40.5578 15.4297C40.4536 15.4036 40.3391 15.3854 40.2141 15.375C40.0943 15.3646 39.9641 15.3594 39.8234 15.3594C39.537 15.3594 39.2896 15.4141 39.0812 15.5234C38.8781 15.6276 38.7219 15.7812 38.6125 15.9844C38.5083 16.1875 38.4562 16.4375 38.4562 16.7344V26ZM40.1984 17.5469V18.9219H35.2766V17.5469H40.1984ZM44.2625 26H42.3797V16.7344C42.3797 16.1042 42.4969 15.5755 42.7313 15.1484C42.9708 14.7161 43.312 14.3906 43.7547 14.1719C44.1974 13.9479 44.7208 13.8359 45.325 13.8359C45.5125 13.8359 45.6974 13.849 45.8797 13.875C46.062 13.8958 46.2391 13.9297 46.4109 13.9766L46.3641 15.4297C46.2599 15.4036 46.1453 15.3854 46.0203 15.375C45.9005 15.3646 45.7703 15.3594 45.6297 15.3594C45.3432 15.3594 45.0958 15.4141 44.8875 15.5234C44.6844 15.6276 44.5281 15.7812 44.4188 15.9844C44.3146 16.1875 44.2625 16.4375 44.2625 16.7344V26ZM46.0047 17.5469V18.9219H41.0828V17.5469H46.0047ZM51.0609 26.1562C50.4359 26.1562 49.8708 26.0547 49.3656 25.8516C48.8656 25.6432 48.4385 25.3542 48.0844 24.9844C47.7354 24.6146 47.4672 24.1797 47.2797 23.6797C47.0922 23.1797 46.9984 22.6406 46.9984 22.0625V21.75C46.9984 21.0885 47.0948 20.4896 47.2875 19.9531C47.4802 19.4167 47.7484 18.9583 48.0922 18.5781C48.4359 18.1927 48.8422 17.8984 49.3109 17.6953C49.7797 17.4922 50.2875 17.3906 50.8344 17.3906C51.4385 17.3906 51.9672 17.4922 52.4203 17.6953C52.8734 17.8984 53.2484 18.1849 53.5453 18.5547C53.8474 18.9193 54.0714 19.3542 54.2172 19.8594C54.3682 20.3646 54.4437 20.9219 54.4437 21.5312V22.3359H47.9125V20.9844H52.5844V20.8359C52.574 20.4974 52.5062 20.1797 52.3812 19.8828C52.2615 19.5859 52.0766 19.3464 51.8266 19.1641C51.5766 18.9818 51.2432 18.8906 50.8266 18.8906C50.5141 18.8906 50.2354 18.9583 49.9906 19.0938C49.751 19.224 49.5505 19.4141 49.3891 19.6641C49.2276 19.9141 49.1026 20.2161 49.0141 20.5703C48.9307 20.9193 48.8891 21.3125 48.8891 21.75V22.0625C48.8891 22.4323 48.9385 22.776 49.0375 23.0938C49.1417 23.4062 49.2927 23.6797 49.4906 23.9141C49.6885 24.1484 49.9281 24.3333 50.2094 24.4688C50.4906 24.599 50.8109 24.6641 51.1703 24.6641C51.6234 24.6641 52.0271 24.5729 52.3812 24.3906C52.7354 24.2083 53.0427 23.9505 53.3031 23.6172L54.2953 24.5781C54.113 24.8438 53.876 25.099 53.5844 25.3438C53.2927 25.5833 52.9359 25.7786 52.5141 25.9297C52.0974 26.0807 51.613 26.1562 51.0609 26.1562ZM59.9375 17.5469V18.9219H55.1719V17.5469H59.9375ZM56.5469 15.4766H58.4297V23.6641C58.4297 23.9245 58.4661 24.125 58.5391 24.2656C58.6172 24.401 58.724 24.4922 58.8594 24.5391C58.9948 24.5859 59.1536 24.6094 59.3359 24.6094C59.4661 24.6094 59.5911 24.6016 59.7109 24.5859C59.8307 24.5703 59.9271 24.5547 60 24.5391L60.0078 25.9766C59.8516 26.0234 59.6693 26.0651 59.4609 26.1016C59.2578 26.138 59.0234 26.1562 58.7578 26.1562C58.3255 26.1562 57.9427 26.0807 57.6094 25.9297C57.276 25.7734 57.0156 25.5208 56.8281 25.1719C56.6406 24.8229 56.5469 24.3594 56.5469 23.7812V15.4766ZM65.4156 17.5469V18.9219H60.65V17.5469H65.4156ZM62.025 15.4766H63.9078V23.6641C63.9078 23.9245 63.9443 24.125 64.0172 24.2656C64.0953 24.401 64.2021 24.4922 64.3375 24.5391C64.4729 24.5859 64.6318 24.6094 64.8141 24.6094C64.9443 24.6094 65.0693 24.6016 65.1891 24.5859C65.3089 24.5703 65.4052 24.5547 65.4781 24.5391L65.4859 25.9766C65.3297 26.0234 65.1474 26.0651 64.9391 26.1016C64.7359 26.138 64.5016 26.1562 64.2359 26.1562C63.8036 26.1562 63.4208 26.0807 63.0875 25.9297C62.7542 25.7734 62.4938 25.5208 62.3063 25.1719C62.1188 24.8229 62.025 24.3594 62.025 23.7812V15.4766ZM70.7453 26.1562C70.1203 26.1562 69.5552 26.0547 69.05 25.8516C68.55 25.6432 68.1229 25.3542 67.7687 24.9844C67.4198 24.6146 67.1516 24.1797 66.9641 23.6797C66.7766 23.1797 66.6828 22.6406 66.6828 22.0625V21.75C66.6828 21.0885 66.7792 20.4896 66.9719 19.9531C67.1646 19.4167 67.4328 18.9583 67.7766 18.5781C68.1203 18.1927 68.5266 17.8984 68.9953 17.6953C69.4641 17.4922 69.9719 17.3906 70.5187 17.3906C71.1229 17.3906 71.6516 17.4922 72.1047 17.6953C72.5578 17.8984 72.9328 18.1849 73.2297 18.5547C73.5318 18.9193 73.7557 19.3542 73.9016 19.8594C74.0526 20.3646 74.1281 20.9219 74.1281 21.5312V22.3359H67.5969V20.9844H72.2687V20.8359C72.2583 20.4974 72.1906 20.1797 72.0656 19.8828C71.9458 19.5859 71.7609 19.3464 71.5109 19.1641C71.2609 18.9818 70.9276 18.8906 70.5109 18.8906C70.1984 18.8906 69.9198 18.9583 69.675 19.0938C69.4354 19.224 69.2349 19.4141 69.0734 19.6641C68.912 19.9141 68.787 20.2161 68.6984 20.5703C68.6151 20.9193 68.5734 21.3125 68.5734 21.75V22.0625C68.5734 22.4323 68.6229 22.776 68.7219 23.0938C68.826 23.4062 68.9771 23.6797 69.175 23.9141C69.3729 24.1484 69.6125 24.3333 69.8937 24.4688C70.175 24.599 70.4953 24.6641 70.8547 24.6641C71.3078 24.6641 71.7115 24.5729 72.0656 24.3906C72.4198 24.2083 72.7271 23.9505 72.9875 23.6172L73.9797 24.5781C73.7974 24.8438 73.5604 25.099 73.2687 25.3438C72.9771 25.5833 72.6203 25.7786 72.1984 25.9297C71.7818 26.0807 71.2974 26.1562 70.7453 26.1562ZM77.6375 19.1562V26H75.7547V17.5469H77.5516L77.6375 19.1562ZM80.2234 17.4922L80.2078 19.2422C80.0932 19.2214 79.9682 19.2057 79.8328 19.1953C79.7026 19.1849 79.5724 19.1797 79.4422 19.1797C79.1193 19.1797 78.8354 19.2266 78.5906 19.3203C78.3458 19.4089 78.1401 19.5391 77.9734 19.7109C77.812 19.8776 77.687 20.0807 77.5984 20.3203C77.5099 20.5599 77.4578 20.8281 77.4422 21.125L77.0125 21.1562C77.0125 20.625 77.0646 20.1328 77.1687 19.6797C77.2729 19.2266 77.4292 18.8281 77.6375 18.4844C77.851 18.1406 78.1167 17.8724 78.4344 17.6797C78.7573 17.487 79.1297 17.3906 79.5516 17.3906C79.6661 17.3906 79.7885 17.401 79.9187 17.4219C80.0542 17.4427 80.1557 17.4661 80.2234 17.4922ZM83.5687 17.5469V26H81.6781V17.5469H83.5687ZM81.5531 15.3281C81.5531 15.0417 81.6469 14.8047 81.8344 14.6172C82.0271 14.4245 82.2927 14.3281 82.6312 14.3281C82.9646 14.3281 83.2276 14.4245 83.4203 14.6172C83.613 14.8047 83.7094 15.0417 83.7094 15.3281C83.7094 15.6094 83.613 15.8438 83.4203 16.0312C83.2276 16.2188 82.9646 16.3125 82.6312 16.3125C82.2927 16.3125 82.0271 16.2188 81.8344 16.0312C81.6469 15.8438 81.5531 15.6094 81.5531 15.3281ZM90.5469 24.3047V20.2734C90.5469 19.9714 90.4922 19.7109 90.3828 19.4922C90.2734 19.2734 90.1068 19.1042 89.8828 18.9844C89.6641 18.8646 89.388 18.8047 89.0547 18.8047C88.7474 18.8047 88.4818 18.8568 88.2578 18.9609C88.0339 19.0651 87.8594 19.2057 87.7344 19.3828C87.6094 19.5599 87.5469 19.7604 87.5469 19.9844H85.6719C85.6719 19.651 85.7526 19.3281 85.9141 19.0156C86.0755 18.7031 86.3099 18.4245 86.6172 18.1797C86.9245 17.9349 87.2917 17.7422 87.7188 17.6016C88.1458 17.4609 88.625 17.3906 89.1562 17.3906C89.7917 17.3906 90.3542 17.4974 90.8438 17.7109C91.3385 17.9245 91.7266 18.2474 92.0078 18.6797C92.2943 19.1068 92.4375 19.6432 92.4375 20.2891V24.0469C92.4375 24.4323 92.4635 24.7786 92.5156 25.0859C92.5729 25.388 92.6536 25.651 92.7578 25.875V26H90.8281C90.7396 25.7969 90.6693 25.5391 90.6172 25.2266C90.5703 24.9089 90.5469 24.6016 90.5469 24.3047ZM90.8203 20.8594L90.8359 22.0234H89.4844C89.1354 22.0234 88.8281 22.0573 88.5625 22.125C88.2969 22.1875 88.0755 22.2812 87.8984 22.4062C87.7214 22.5312 87.5885 22.6823 87.5 22.8594C87.4115 23.0365 87.3672 23.237 87.3672 23.4609C87.3672 23.6849 87.4193 23.8906 87.5234 24.0781C87.6276 24.2604 87.7786 24.4036 87.9766 24.5078C88.1797 24.612 88.4245 24.6641 88.7109 24.6641C89.0964 24.6641 89.4323 24.5859 89.7188 24.4297C90.0104 24.2682 90.2396 24.0729 90.4062 23.8438C90.5729 23.6094 90.6615 23.388 90.6719 23.1797L91.2812 24.0156C91.2188 24.2292 91.112 24.4583 90.9609 24.7031C90.8099 24.9479 90.612 25.1823 90.3672 25.4062C90.1276 25.625 89.8385 25.8047 89.5 25.9453C89.1667 26.0859 88.7812 26.1562 88.3438 26.1562C87.7917 26.1562 87.2995 26.0469 86.8672 25.8281C86.4349 25.6042 86.0964 25.3047 85.8516 24.9297C85.6068 24.5495 85.4844 24.1198 85.4844 23.6406C85.4844 23.1927 85.5677 22.7969 85.7344 22.4531C85.9062 22.1042 86.1562 21.8125 86.4844 21.5781C86.8177 21.3438 87.224 21.1667 87.7031 21.0469C88.1823 20.9219 88.7292 20.8594 89.3438 20.8594H90.8203Z" fill="white"/>
<defs>
<filter id="filter0_d_10_4" x="0.9" y="0.9" width="111.2" height="48.2" filterUnits="userSpaceOnUse" color-interpolation-filters="sRGB">
<feFlood flood-opacity="0" result="BackgroundImageFix"/>
<feColorMatrix in="SourceAlpha" type="matrix" values="0 0 0 0 0 0 0 0 0 0 0 0 0 0 0 0 0 0 127 0" result="hardAlpha"/>
<feMorphology radius="4" operator="erode" in="SourceAlpha" result="effect1_dropShadow_10_4"/>
<feOffset dy="4"/>
<feGaussianBlur stdDeviation="4.05"/>
<feComposite in2="hardAlpha" operator="out"/>
<feColorMatrix type="matrix" values="0 0 0 0 1 0 0 0 0 1 0 0 0 0 1 0 0 0 0.44 0"/>
<feBlend mode="normal" in2="BackgroundImageFix" result="effect1_dropShadow_10_4"/>
<feBlend mode="normal" in="SourceGraphic" in2="effect1_dropShadow_10_4" result="shape"/>
</filter>
</defs>
</svg>
