<svg width="272" height="55" viewBox="0 0 272 55" fill="none" xmlns="http://www.w3.org/2000/svg">
<path d="M64.6031 46.7812L67.7203 36.625H68.3766L64.7906 48H64.2828L64.6031 46.7812ZM61.2438 36.625L64.3609 46.7812L64.6734 48H64.1734L60.5875 36.625H61.2438ZM70.8156 39.5469V48H70.2219V39.5469H70.8156ZM70.05 36.9766C70.05 36.8307 70.0943 36.7109 70.1828 36.6172C70.2714 36.5182 70.3833 36.4688 70.5188 36.4688C70.6594 36.4688 70.7714 36.5182 70.8547 36.6172C70.938 36.7109 70.9797 36.8307 70.9797 36.9766C70.9797 37.1172 70.938 37.237 70.8547 37.3359C70.7714 37.4297 70.6594 37.4766 70.5188 37.4766C70.3833 37.4766 70.2714 37.4297 70.1828 37.3359C70.0943 37.237 70.05 37.1172 70.05 36.9766ZM77.9188 46.4375V41.8438C77.9188 41.401 77.8406 41.0417 77.6844 40.7656C77.5281 40.4844 77.3016 40.2786 77.0047 40.1484C76.7078 40.0182 76.3432 39.9531 75.9109 39.9531C75.5151 39.9531 75.1583 40.0339 74.8406 40.1953C74.5281 40.3516 74.2807 40.5755 74.0984 40.8672C73.9162 41.1536 73.825 41.4896 73.825 41.875L73.2469 41.8594C73.2469 41.5208 73.312 41.2031 73.4422 40.9062C73.5724 40.6042 73.7573 40.3411 73.9969 40.1172C74.2365 39.888 74.5203 39.7109 74.8484 39.5859C75.1766 39.4557 75.5385 39.3906 75.9344 39.3906C76.4344 39.3906 76.8771 39.4714 77.2625 39.6328C77.6479 39.7943 77.95 40.0573 78.1688 40.4219C78.3875 40.7812 78.4969 41.2604 78.4969 41.8594V46.2734C78.4969 46.5755 78.5151 46.8802 78.5516 47.1875C78.588 47.4896 78.6375 47.7344 78.7 47.9219V48H78.0672C78.0151 47.8021 77.976 47.5599 77.95 47.2734C77.9292 46.987 77.9188 46.7083 77.9188 46.4375ZM78.0828 43.2031L78.0984 43.7422H76.2859C75.8328 43.7422 75.4396 43.7943 75.1063 43.8984C74.7781 43.9974 74.5047 44.1406 74.2859 44.3281C74.0724 44.5104 73.9109 44.7292 73.8016 44.9844C73.6974 45.2344 73.6453 45.513 73.6453 45.8203C73.6453 46.2161 73.7156 46.5469 73.8563 46.8125C73.9969 47.0729 74.1948 47.2682 74.45 47.3984C74.7104 47.5234 75.0125 47.5859 75.3563 47.5859C75.825 47.5859 76.2391 47.4974 76.5984 47.3203C76.963 47.138 77.2651 46.8906 77.5047 46.5781C77.7495 46.2604 77.9266 45.901 78.0359 45.5L78.2313 45.9375C78.1635 46.1979 78.0516 46.4583 77.8953 46.7188C77.7391 46.9792 77.5385 47.2188 77.2938 47.4375C77.0542 47.6562 76.7703 47.8333 76.4422 47.9688C76.1141 48.1042 75.7391 48.1719 75.3172 48.1719C74.8641 48.1719 74.4682 48.0859 74.1297 47.9141C73.7912 47.737 73.5281 47.474 73.3406 47.125C73.1583 46.776 73.0672 46.3438 73.0672 45.8281C73.0672 45.4427 73.1323 45.0911 73.2625 44.7734C73.3979 44.4557 73.5958 44.1797 73.8563 43.9453C74.1219 43.7057 74.45 43.5234 74.8406 43.3984C75.2365 43.2682 75.6922 43.2031 76.2078 43.2031H78.0828ZM90.9922 47.4297V48H85.4453V47.4297H90.9922ZM85.6797 36.625V48H85.0859V36.625H85.6797ZM90.3281 41.8594V42.4297H85.4453V41.8594H90.3281ZM90.9766 36.625V37.1875H85.4453V36.625H90.9766ZM93.6344 41.3516V48H93.0484V39.5469H93.6109L93.6344 41.3516ZM93.5172 43.1094L93.2359 42.75C93.2672 42.3021 93.3557 41.8776 93.5016 41.4766C93.6526 41.0703 93.8505 40.7109 94.0953 40.3984C94.3453 40.0859 94.6344 39.8411 94.9625 39.6641C95.2906 39.4818 95.6552 39.3906 96.0563 39.3906C96.4156 39.3906 96.7359 39.4505 97.0172 39.5703C97.2984 39.6849 97.5354 39.8672 97.7281 40.1172C97.9208 40.3672 98.0693 40.6901 98.1734 41.0859C98.2776 41.4818 98.3297 41.9583 98.3297 42.5156V48H97.7438V42.5078C97.7438 41.8411 97.6682 41.3229 97.5172 40.9531C97.3661 40.5833 97.1552 40.3255 96.8844 40.1797C96.6135 40.0286 96.2984 39.9531 95.9391 39.9531C95.5276 39.9531 95.1708 40.0651 94.8688 40.2891C94.5719 40.5078 94.3245 40.7865 94.1266 41.125C93.9286 41.4635 93.7802 41.8125 93.6813 42.1719C93.5823 42.526 93.5276 42.8385 93.5172 43.1094ZM106.027 47.4375V48H100.62V47.4375H106.027ZM105.683 40.0391L100.784 48H100.425V47.5234L105.316 39.5469H105.683V40.0391ZM105.417 39.5469V40.1172H100.597V39.5469H105.417ZM107.427 44.2188V43.3203C107.427 42.6953 107.497 42.1406 107.637 41.6562C107.778 41.1719 107.979 40.7604 108.239 40.4219C108.505 40.0833 108.822 39.8281 109.192 39.6562C109.567 39.4792 109.984 39.3906 110.442 39.3906C110.911 39.3906 111.33 39.4792 111.7 39.6562C112.07 39.8281 112.385 40.0833 112.645 40.4219C112.906 40.7604 113.106 41.1719 113.247 41.6562C113.387 42.1406 113.458 42.6953 113.458 43.3203V44.2188C113.458 44.8438 113.387 45.401 113.247 45.8906C113.106 46.3802 112.906 46.7943 112.645 47.1328C112.385 47.4714 112.07 47.7292 111.7 47.9062C111.33 48.0833 110.914 48.1719 110.45 48.1719C109.986 48.1719 109.567 48.0833 109.192 47.9062C108.822 47.7292 108.505 47.4714 108.239 47.1328C107.979 46.7943 107.778 46.3802 107.637 45.8906C107.497 45.401 107.427 44.8438 107.427 44.2188ZM108.02 43.3203V44.2188C108.02 44.7083 108.07 45.1615 108.169 45.5781C108.273 45.9896 108.427 46.3464 108.63 46.6484C108.833 46.9505 109.085 47.1849 109.387 47.3516C109.695 47.5182 110.049 47.6016 110.45 47.6016C110.856 47.6016 111.21 47.5182 111.512 47.3516C111.82 47.1849 112.072 46.9505 112.27 46.6484C112.473 46.3464 112.624 45.9896 112.723 45.5781C112.822 45.1615 112.872 44.7083 112.872 44.2188V43.3203C112.872 42.8359 112.82 42.3906 112.716 41.9844C112.617 41.5729 112.463 41.2161 112.255 40.9141C112.052 40.612 111.799 40.3776 111.497 40.2109C111.195 40.0391 110.846 39.9531 110.45 39.9531C110.049 39.9531 109.695 40.0391 109.387 40.2109C109.085 40.3776 108.833 40.612 108.63 40.9141C108.427 41.2161 108.273 41.5729 108.169 41.9844C108.07 42.3906 108.02 42.8359 108.02 43.3203ZM122.398 36.625V48H121.805V36.625H122.398ZM125.789 36.625V37.1875H118.414V36.625H125.789ZM126.533 44.2188V43.3203C126.533 42.6953 126.603 42.1406 126.744 41.6562C126.884 41.1719 127.085 40.7604 127.345 40.4219C127.611 40.0833 127.929 39.8281 128.298 39.6562C128.673 39.4792 129.09 39.3906 129.548 39.3906C130.017 39.3906 130.436 39.4792 130.806 39.6562C131.176 39.8281 131.491 40.0833 131.752 40.4219C132.012 40.7604 132.213 41.1719 132.353 41.6562C132.494 42.1406 132.564 42.6953 132.564 43.3203V44.2188C132.564 44.8438 132.494 45.401 132.353 45.8906C132.213 46.3802 132.012 46.7943 131.752 47.1328C131.491 47.4714 131.176 47.7292 130.806 47.9062C130.436 48.0833 130.02 48.1719 129.556 48.1719C129.093 48.1719 128.673 48.0833 128.298 47.9062C127.929 47.7292 127.611 47.4714 127.345 47.1328C127.085 46.7943 126.884 46.3802 126.744 45.8906C126.603 45.401 126.533 44.8438 126.533 44.2188ZM127.127 43.3203V44.2188C127.127 44.7083 127.176 45.1615 127.275 45.5781C127.379 45.9896 127.533 46.3464 127.736 46.6484C127.939 46.9505 128.192 47.1849 128.494 47.3516C128.801 47.5182 129.155 47.6016 129.556 47.6016C129.963 47.6016 130.317 47.5182 130.619 47.3516C130.926 47.1849 131.179 46.9505 131.377 46.6484C131.58 46.3464 131.731 45.9896 131.83 45.5781C131.929 45.1615 131.978 44.7083 131.978 44.2188V43.3203C131.978 42.8359 131.926 42.3906 131.822 41.9844C131.723 41.5729 131.569 41.2161 131.361 40.9141C131.158 40.612 130.905 40.3776 130.603 40.2109C130.301 40.0391 129.952 39.9531 129.556 39.9531C129.155 39.9531 128.801 40.0391 128.494 40.2109C128.192 40.3776 127.939 40.612 127.736 40.9141C127.533 41.2161 127.379 41.5729 127.275 41.9844C127.176 42.3906 127.127 42.8359 127.127 43.3203ZM139.566 39.5469H140.128V48.2891C140.128 49.013 140.019 49.6016 139.8 50.0547C139.586 50.513 139.277 50.849 138.87 51.0625C138.464 51.2812 137.974 51.3906 137.402 51.3906C137.089 51.3906 136.777 51.3385 136.464 51.2344C136.157 51.1354 135.873 50.9922 135.613 50.8047C135.357 50.6172 135.139 50.3984 134.956 50.1484L135.277 49.7578C135.563 50.1068 135.881 50.3724 136.23 50.5547C136.579 50.7422 136.956 50.8359 137.363 50.8359C137.847 50.8359 138.251 50.75 138.573 50.5781C138.896 50.4115 139.139 50.1406 139.3 49.7656C139.461 49.3958 139.542 48.9062 139.542 48.2969V41.4062L139.566 39.5469ZM134.511 44.1562V43.3906C134.511 42.6719 134.571 42.0599 134.691 41.5547C134.816 41.0495 134.995 40.638 135.23 40.3203C135.469 39.9974 135.758 39.763 136.097 39.6172C136.435 39.4661 136.816 39.3906 137.238 39.3906C137.639 39.3906 137.993 39.4583 138.3 39.5938C138.613 39.7292 138.881 39.9193 139.105 40.1641C139.329 40.4089 139.511 40.6979 139.652 41.0312C139.797 41.3646 139.907 41.7292 139.98 42.125V45.6406C139.928 45.9844 139.831 46.3099 139.691 46.6172C139.55 46.9245 139.365 47.1953 139.136 47.4297C138.912 47.6589 138.641 47.8411 138.323 47.9766C138.006 48.1068 137.639 48.1719 137.222 48.1719C136.8 48.1719 136.42 48.0911 136.081 47.9297C135.748 47.7682 135.464 47.5234 135.23 47.1953C134.995 46.8672 134.816 46.4505 134.691 45.9453C134.571 45.4401 134.511 44.8438 134.511 44.1562ZM135.105 43.3906V44.1562C135.105 44.7396 135.149 45.2474 135.238 45.6797C135.326 46.112 135.461 46.4714 135.644 46.7578C135.826 47.0391 136.055 47.25 136.331 47.3906C136.607 47.5312 136.933 47.6016 137.308 47.6016C137.782 47.6016 138.18 47.5104 138.503 47.3281C138.831 47.1406 139.092 46.8958 139.284 46.5938C139.477 46.2865 139.615 45.9505 139.698 45.5859V42.2578C139.646 42.0182 139.568 41.7656 139.464 41.5C139.365 41.2344 139.224 40.9844 139.042 40.75C138.865 40.5104 138.636 40.3177 138.355 40.1719C138.073 40.026 137.727 39.9531 137.316 39.9531C136.941 39.9531 136.613 40.0234 136.331 40.1641C136.055 40.3047 135.826 40.5156 135.644 40.7969C135.461 41.0781 135.326 41.4349 135.238 41.8672C135.149 42.2943 135.105 42.8021 135.105 43.3906ZM143.341 41.3516V48H142.755V39.5469H143.317L143.341 41.3516ZM143.223 43.1094L142.942 42.75C142.973 42.3021 143.062 41.8776 143.208 41.4766C143.359 41.0703 143.557 40.7109 143.802 40.3984C144.052 40.0859 144.341 39.8411 144.669 39.6641C144.997 39.4818 145.361 39.3906 145.763 39.3906C146.122 39.3906 146.442 39.4505 146.723 39.5703C147.005 39.6849 147.242 39.8672 147.434 40.1172C147.627 40.3672 147.776 40.6901 147.88 41.0859C147.984 41.4818 148.036 41.9583 148.036 42.5156V48H147.45V42.5078C147.45 41.8411 147.374 41.3229 147.223 40.9531C147.072 40.5833 146.861 40.3255 146.591 40.1797C146.32 40.0286 146.005 39.9531 145.645 39.9531C145.234 39.9531 144.877 40.0651 144.575 40.2891C144.278 40.5078 144.031 40.7865 143.833 41.125C143.635 41.4635 143.486 41.8125 143.388 42.1719C143.289 42.526 143.234 42.8385 143.223 43.1094ZM151.319 39.5469V48H150.725V39.5469H151.319ZM150.553 36.9766C150.553 36.8307 150.597 36.7109 150.686 36.6172C150.774 36.5182 150.886 36.4688 151.022 36.4688C151.163 36.4688 151.274 36.5182 151.358 36.6172C151.441 36.7109 151.483 36.8307 151.483 36.9766C151.483 37.1172 151.441 37.237 151.358 37.3359C151.274 37.4297 151.163 37.4766 151.022 37.4766C150.886 37.4766 150.774 37.4297 150.686 37.3359C150.597 37.237 150.553 37.1172 150.553 36.9766ZM163.509 47.4375V48H157.611V47.4688L160.744 43.1875C161.145 42.651 161.468 42.1719 161.712 41.75C161.957 41.3229 162.134 40.9323 162.244 40.5781C162.353 40.2188 162.408 39.875 162.408 39.5469C162.408 39.0417 162.324 38.6016 162.158 38.2266C161.996 37.8464 161.754 37.5521 161.431 37.3438C161.114 37.1354 160.718 37.0312 160.244 37.0312C159.796 37.0312 159.4 37.1536 159.056 37.3984C158.718 37.6432 158.452 37.9792 158.259 38.4062C158.072 38.8333 157.978 39.3203 157.978 39.8672H157.384C157.384 39.2422 157.502 38.6745 157.736 38.1641C157.97 37.6484 158.301 37.237 158.728 36.9297C159.155 36.6224 159.66 36.4688 160.244 36.4688C160.811 36.4688 161.301 36.5885 161.712 36.8281C162.129 37.0625 162.449 37.4062 162.673 37.8594C162.897 38.3125 163.009 38.8672 163.009 39.5234C163.009 39.8672 162.955 40.2161 162.845 40.5703C162.741 40.9193 162.595 41.2708 162.408 41.625C162.226 41.9792 162.017 42.3281 161.783 42.6719C161.554 43.0156 161.317 43.3542 161.072 43.6875L158.33 47.4375H163.509ZM166.495 42.2422L166.034 42.0938L166.495 36.625H171.245V37.2031H167.011L166.652 41.5C166.813 41.3438 167.063 41.1875 167.402 41.0312C167.74 40.875 168.123 40.7969 168.55 40.7969C168.972 40.7969 169.357 40.8776 169.706 41.0391C170.055 41.2005 170.355 41.4349 170.605 41.7422C170.86 42.0495 171.055 42.4245 171.191 42.8672C171.326 43.3099 171.394 43.8125 171.394 44.375C171.394 44.9219 171.339 45.4245 171.23 45.8828C171.126 46.3411 170.961 46.7422 170.738 47.0859C170.514 47.4245 170.224 47.6875 169.87 47.875C169.516 48.0625 169.092 48.1562 168.597 48.1562C168.217 48.1562 167.86 48.0938 167.527 47.9688C167.193 47.8385 166.896 47.6432 166.636 47.3828C166.376 47.1224 166.165 46.7943 166.003 46.3984C165.842 46.0026 165.743 45.5391 165.706 45.0078H166.277C166.329 45.5651 166.451 46.0365 166.644 46.4219C166.836 46.8073 167.097 47.099 167.425 47.2969C167.758 47.4948 168.149 47.5938 168.597 47.5938C168.967 47.5938 169.29 47.526 169.566 47.3906C169.842 47.25 170.071 47.0443 170.253 46.7734C170.441 46.5026 170.579 46.1693 170.667 45.7734C170.761 45.3724 170.808 44.9115 170.808 44.3906C170.808 43.9635 170.756 43.5677 170.652 43.2031C170.553 42.8385 170.402 42.5208 170.198 42.25C170.001 41.974 169.756 41.7604 169.464 41.6094C169.178 41.4583 168.849 41.3828 168.48 41.3828C167.995 41.3828 167.602 41.4609 167.3 41.6172C167.003 41.7682 166.735 41.9766 166.495 42.2422ZM174.27 46.6719V47.7188C174.27 48.2031 174.184 48.6406 174.013 49.0312C173.841 49.4271 173.611 49.763 173.325 50.0391L172.919 49.7422C173.075 49.5286 173.205 49.3203 173.309 49.1172C173.414 48.9141 173.492 48.7005 173.544 48.4766C173.596 48.2578 173.622 48.013 173.622 47.7422V46.6719H174.27ZM183.898 42.4297H181.055L181.039 41.875H183.43C183.956 41.875 184.398 41.7891 184.758 41.6172C185.122 41.4453 185.398 41.1849 185.586 40.8359C185.773 40.487 185.867 40.0521 185.867 39.5312C185.867 39.0156 185.771 38.5833 185.578 38.2344C185.391 37.8854 185.107 37.625 184.727 37.4531C184.352 37.276 183.883 37.1875 183.32 37.1875H181.227V48H180.633V36.625H183.32C183.805 36.625 184.24 36.6823 184.625 36.7969C185.016 36.9115 185.346 37.0885 185.617 37.3281C185.893 37.5677 186.102 37.8724 186.242 38.2422C186.388 38.612 186.461 39.0521 186.461 39.5625C186.461 40.0312 186.38 40.4531 186.219 40.8281C186.057 41.2031 185.823 41.5104 185.516 41.75C185.214 41.9844 184.849 42.1276 184.422 42.1797L183.898 42.4297ZM183.828 48H180.914L181.188 47.4297H183.828C184.333 47.4297 184.766 47.3281 185.125 47.125C185.49 46.9167 185.768 46.6198 185.961 46.2344C186.154 45.849 186.25 45.388 186.25 44.8516C186.25 44.4193 186.164 44.0208 185.992 43.6562C185.82 43.2865 185.56 42.9896 185.211 42.7656C184.862 42.5417 184.422 42.4297 183.891 42.4297H182.258L182.273 41.875H184.609L184.703 42.0703C185.12 42.1276 185.49 42.2865 185.812 42.5469C186.141 42.8073 186.396 43.138 186.578 43.5391C186.766 43.9349 186.859 44.3672 186.859 44.8359C186.859 45.5182 186.729 46.0964 186.469 46.5703C186.214 47.0391 185.857 47.3958 185.398 47.6406C184.945 47.8802 184.422 48 183.828 48ZM189.712 40.9922V48H189.127V39.5469H189.705L189.712 40.9922ZM192.384 39.4688L192.345 40.0312C192.267 40.0156 192.189 40.0052 192.111 40C192.033 39.9896 191.944 39.9844 191.845 39.9844C191.481 39.9844 191.16 40.0729 190.884 40.25C190.608 40.4219 190.377 40.6641 190.189 40.9766C190.002 41.2891 189.858 41.6484 189.759 42.0547C189.666 42.4609 189.616 42.8958 189.611 43.3594L189.345 43.4219C189.345 42.849 189.395 42.3177 189.494 41.8281C189.598 41.3385 189.754 40.9115 189.962 40.5469C190.176 40.1771 190.439 39.8932 190.752 39.6953C191.069 39.4922 191.444 39.3906 191.877 39.3906C191.976 39.3906 192.069 39.3984 192.158 39.4141C192.252 39.4245 192.327 39.4427 192.384 39.4688ZM193.605 44.2188V43.3203C193.605 42.6953 193.675 42.1406 193.816 41.6562C193.956 41.1719 194.157 40.7604 194.417 40.4219C194.683 40.0833 195.001 39.8281 195.37 39.6562C195.745 39.4792 196.162 39.3906 196.62 39.3906C197.089 39.3906 197.508 39.4792 197.878 39.6562C198.248 39.8281 198.563 40.0833 198.823 40.4219C199.084 40.7604 199.284 41.1719 199.425 41.6562C199.566 42.1406 199.636 42.6953 199.636 43.3203V44.2188C199.636 44.8438 199.566 45.401 199.425 45.8906C199.284 46.3802 199.084 46.7943 198.823 47.1328C198.563 47.4714 198.248 47.7292 197.878 47.9062C197.508 48.0833 197.092 48.1719 196.628 48.1719C196.165 48.1719 195.745 48.0833 195.37 47.9062C195.001 47.7292 194.683 47.4714 194.417 47.1328C194.157 46.7943 193.956 46.3802 193.816 45.8906C193.675 45.401 193.605 44.8438 193.605 44.2188ZM194.198 43.3203V44.2188C194.198 44.7083 194.248 45.1615 194.347 45.5781C194.451 45.9896 194.605 46.3464 194.808 46.6484C195.011 46.9505 195.264 47.1849 195.566 47.3516C195.873 47.5182 196.227 47.6016 196.628 47.6016C197.034 47.6016 197.389 47.5182 197.691 47.3516C197.998 47.1849 198.251 46.9505 198.448 46.6484C198.652 46.3464 198.803 45.9896 198.902 45.5781C199.001 45.1615 199.05 44.7083 199.05 44.2188V43.3203C199.05 42.8359 198.998 42.3906 198.894 41.9844C198.795 41.5729 198.641 41.2161 198.433 40.9141C198.23 40.612 197.977 40.3776 197.675 40.2109C197.373 40.0391 197.024 39.9531 196.628 39.9531C196.227 39.9531 195.873 40.0391 195.566 40.2109C195.264 40.3776 195.011 40.612 194.808 40.9141C194.605 41.2161 194.451 41.5729 194.347 41.9844C194.248 42.3906 194.198 42.8359 194.198 43.3203ZM202.497 41.3516V48H201.911V39.5469H202.473L202.497 41.3516ZM202.38 43.1094L202.098 42.75C202.13 42.3021 202.218 41.8776 202.364 41.4766C202.515 41.0703 202.713 40.7109 202.958 40.3984C203.208 40.0859 203.497 39.8411 203.825 39.6641C204.153 39.4818 204.518 39.3906 204.919 39.3906C205.278 39.3906 205.598 39.4505 205.88 39.5703C206.161 39.6849 206.398 39.8672 206.591 40.1172C206.783 40.3672 206.932 40.6901 207.036 41.0859C207.14 41.4818 207.192 41.9583 207.192 42.5156V48H206.606V42.5078C206.606 41.8411 206.531 41.3229 206.38 40.9531C206.229 40.5833 206.018 40.3255 205.747 40.1797C205.476 40.0286 205.161 39.9531 204.802 39.9531C204.39 39.9531 204.033 40.0651 203.731 40.2891C203.434 40.5078 203.187 40.7865 202.989 41.125C202.791 41.4635 202.643 41.8125 202.544 42.1719C202.445 42.526 202.39 42.8385 202.38 43.1094ZM210.475 39.5469V48H209.881V39.5469H210.475ZM209.709 36.9766C209.709 36.8307 209.754 36.7109 209.842 36.6172C209.931 36.5182 210.043 36.4688 210.178 36.4688C210.319 36.4688 210.431 36.5182 210.514 36.6172C210.597 36.7109 210.639 36.8307 210.639 36.9766C210.639 37.1172 210.597 37.237 210.514 37.3359C210.431 37.4297 210.319 37.4766 210.178 37.4766C210.043 37.4766 209.931 37.4297 209.842 37.3359C209.754 37.237 209.709 37.1172 209.709 36.9766Z" fill="white"/>
<path d="M54.5875 6.94531V9.6875C54.5875 10.401 54.5042 11.0365 54.3375 11.5938C54.1708 12.1458 53.9313 12.6146 53.6188 13C53.3063 13.3802 52.926 13.6719 52.4781 13.875C52.0354 14.0729 51.5328 14.1719 50.9703 14.1719C50.413 14.1719 49.9104 14.0729 49.4625 13.875C49.0146 13.6719 48.6318 13.3802 48.3141 13C48.0016 12.6146 47.7594 12.1458 47.5875 11.5938C47.4156 11.0365 47.3297 10.401 47.3297 9.6875V6.94531C47.3297 6.22656 47.413 5.59115 47.5797 5.03906C47.7516 4.48177 47.9938 4.01302 48.3063 3.63281C48.624 3.2526 49.0042 2.96354 49.4469 2.76562C49.8948 2.56771 50.3948 2.46875 50.9469 2.46875C51.5146 2.46875 52.0224 2.56771 52.4703 2.76562C52.9182 2.96354 53.2984 3.2526 53.6109 3.63281C53.9286 4.01302 54.1708 4.48177 54.3375 5.03906C54.5042 5.59115 54.5875 6.22656 54.5875 6.94531ZM53.9859 9.6875V6.92969C53.9859 6.3099 53.9182 5.76042 53.7828 5.28125C53.6526 4.79688 53.4599 4.39062 53.2047 4.0625C52.9495 3.72917 52.6318 3.47656 52.2516 3.30469C51.8766 3.13281 51.4417 3.04688 50.9469 3.04688C50.4677 3.04688 50.0406 3.13281 49.6656 3.30469C49.2906 3.47656 48.9729 3.72917 48.7125 4.0625C48.4573 4.39062 48.262 4.79688 48.1266 5.28125C47.9964 5.76042 47.9313 6.3099 47.9313 6.92969V9.6875C47.9313 10.3125 47.999 10.8672 48.1344 11.3516C48.2698 11.8307 48.4677 12.237 48.7281 12.5703C48.9885 12.9036 49.3063 13.1562 49.6813 13.3281C50.0563 13.5 50.4859 13.5859 50.9703 13.5859C51.4599 13.5859 51.8922 13.5 52.2672 13.3281C52.6422 13.1562 52.9573 12.9036 53.2125 12.5703C53.4677 12.237 53.6604 11.8307 53.7906 11.3516C53.9208 10.8672 53.9859 10.3125 53.9859 9.6875ZM57.6281 6.99219V14H57.0422V5.54688H57.6203L57.6281 6.99219ZM60.3 5.46875L60.2609 6.03125C60.1828 6.01562 60.1047 6.00521 60.0266 6C59.9484 5.98958 59.8599 5.98438 59.7609 5.98438C59.3964 5.98438 59.076 6.07292 58.8 6.25C58.524 6.42188 58.2922 6.66406 58.1047 6.97656C57.9172 7.28906 57.774 7.64844 57.675 8.05469C57.5813 8.46094 57.5318 8.89583 57.5266 9.35938L57.2609 9.42188C57.2609 8.84896 57.3104 8.31771 57.4094 7.82812C57.5135 7.33854 57.6698 6.91146 57.8781 6.54688C58.0917 6.17708 58.3547 5.89323 58.6672 5.69531C58.9849 5.49219 59.3599 5.39062 59.7922 5.39062C59.8911 5.39062 59.9849 5.39844 60.0734 5.41406C60.1672 5.42448 60.2427 5.44271 60.3 5.46875ZM66.1375 12.4375V7.84375C66.1375 7.40104 66.0594 7.04167 65.9031 6.76562C65.7469 6.48438 65.5203 6.27865 65.2234 6.14844C64.9266 6.01823 64.562 5.95312 64.1297 5.95312C63.7339 5.95312 63.3771 6.03385 63.0594 6.19531C62.7469 6.35156 62.4995 6.57552 62.3172 6.86719C62.1349 7.15365 62.0438 7.48958 62.0438 7.875L61.4656 7.85938C61.4656 7.52083 61.5307 7.20312 61.6609 6.90625C61.7911 6.60417 61.976 6.34115 62.2156 6.11719C62.4552 5.88802 62.7391 5.71094 63.0672 5.58594C63.3953 5.45573 63.7573 5.39062 64.1531 5.39062C64.6531 5.39062 65.0958 5.47135 65.4813 5.63281C65.8667 5.79427 66.1688 6.05729 66.3875 6.42188C66.6063 6.78125 66.7156 7.26042 66.7156 7.85938V12.2734C66.7156 12.5755 66.7339 12.8802 66.7703 13.1875C66.8068 13.4896 66.8563 13.7344 66.9188 13.9219V14H66.2859C66.2339 13.8021 66.1948 13.5599 66.1688 13.2734C66.1479 12.987 66.1375 12.7083 66.1375 12.4375ZM66.3016 9.20312L66.3172 9.74219H64.5047C64.0516 9.74219 63.6583 9.79427 63.325 9.89844C62.9969 9.9974 62.7234 10.1406 62.5047 10.3281C62.2911 10.5104 62.1297 10.7292 62.0203 10.9844C61.9161 11.2344 61.8641 11.513 61.8641 11.8203C61.8641 12.2161 61.9344 12.5469 62.075 12.8125C62.2156 13.0729 62.4135 13.2682 62.6688 13.3984C62.9292 13.5234 63.2313 13.5859 63.575 13.5859C64.0438 13.5859 64.4578 13.4974 64.8172 13.3203C65.1818 13.138 65.4839 12.8906 65.7234 12.5781C65.9682 12.2604 66.1453 11.901 66.2547 11.5L66.45 11.9375C66.3823 12.1979 66.2703 12.4583 66.1141 12.7188C65.9578 12.9792 65.7573 13.2188 65.5125 13.4375C65.2729 13.6562 64.9891 13.8333 64.6609 13.9688C64.3328 14.1042 63.9578 14.1719 63.5359 14.1719C63.0828 14.1719 62.687 14.0859 62.3484 13.9141C62.0099 13.737 61.7469 13.474 61.5594 13.125C61.3771 12.776 61.2859 12.3438 61.2859 11.8281C61.2859 11.4427 61.351 11.0911 61.4813 10.7734C61.6167 10.4557 61.8146 10.1797 62.075 9.94531C62.3406 9.70573 62.6688 9.52344 63.0594 9.39844C63.4552 9.26823 63.9109 9.20312 64.4266 9.20312H66.3016ZM69.975 6.99219V14H69.3891V5.54688H69.9672L69.975 6.99219ZM72.6469 5.46875L72.6078 6.03125C72.5297 6.01562 72.4516 6.00521 72.3734 6C72.2953 5.98958 72.2068 5.98438 72.1078 5.98438C71.7432 5.98438 71.4229 6.07292 71.1469 6.25C70.8708 6.42188 70.6391 6.66406 70.4516 6.97656C70.2641 7.28906 70.1208 7.64844 70.0219 8.05469C69.9281 8.46094 69.8786 8.89583 69.8734 9.35938L69.6078 9.42188C69.6078 8.84896 69.6573 8.31771 69.7563 7.82812C69.8604 7.33854 70.0167 6.91146 70.225 6.54688C70.4385 6.17708 70.7016 5.89323 71.0141 5.69531C71.3318 5.49219 71.7068 5.39062 72.1391 5.39062C72.238 5.39062 72.3318 5.39844 72.4203 5.41406C72.5141 5.42448 72.5896 5.44271 72.6469 5.46875ZM75.0625 5.54688V14H74.4688V5.54688H75.0625ZM74.2969 2.97656C74.2969 2.83073 74.3411 2.71094 74.4297 2.61719C74.5182 2.51823 74.6302 2.46875 74.7656 2.46875C74.9062 2.46875 75.0182 2.51823 75.1016 2.61719C75.1849 2.71094 75.2266 2.83073 75.2266 2.97656C75.2266 3.11719 75.1849 3.23698 75.1016 3.33594C75.0182 3.42969 74.9062 3.47656 74.7656 3.47656C74.6302 3.47656 74.5182 3.42969 74.4297 3.33594C74.3411 3.23698 74.2969 3.11719 74.2969 2.97656ZM77.5094 13.5469C77.5094 13.4062 77.5563 13.2865 77.65 13.1875C77.7438 13.0833 77.8714 13.0312 78.0328 13.0312C78.1943 13.0312 78.3245 13.0807 78.4234 13.1797C78.5276 13.2786 78.5797 13.401 78.5797 13.5469C78.5797 13.6875 78.5276 13.8073 78.4234 13.9062C78.3245 14.0052 78.1943 14.0547 78.0328 14.0547C77.8714 14.0547 77.7438 14.0052 77.65 13.9062C77.5563 13.8073 77.5094 13.6875 77.5094 13.5469ZM77.5406 6.17969C77.5406 6.03906 77.5875 5.91927 77.6813 5.82031C77.775 5.71615 77.9026 5.66406 78.0641 5.66406C78.2255 5.66406 78.3557 5.71354 78.4547 5.8125C78.5589 5.91146 78.6109 6.03385 78.6109 6.17969C78.6109 6.32031 78.5589 6.4401 78.4547 6.53906C78.3557 6.63802 78.2255 6.6875 78.0641 6.6875C77.9026 6.6875 77.775 6.63802 77.6813 6.53906C77.5875 6.4401 77.5406 6.32031 77.5406 6.17969ZM90.2078 13.4297V14H85.1453V13.4297H90.2078ZM85.3797 2.625V14H84.7703V2.625H85.3797ZM96.4281 12.0469V5.54688H97.0141V14H96.4359L96.4281 12.0469ZM96.5219 10.6172L96.8891 10.6016C96.8891 11.112 96.8344 11.5833 96.725 12.0156C96.6156 12.4479 96.4464 12.8255 96.2172 13.1484C95.9932 13.4661 95.7016 13.7135 95.3422 13.8906C94.988 14.0677 94.5609 14.1562 94.0609 14.1562C93.712 14.1562 93.3943 14.099 93.1078 13.9844C92.8214 13.8646 92.574 13.6797 92.3656 13.4297C92.1573 13.1745 91.9958 12.8438 91.8813 12.4375C91.7667 12.026 91.7094 11.526 91.7094 10.9375V5.54688H92.3031V10.9531C92.3031 11.4427 92.35 11.8568 92.4438 12.1953C92.5375 12.5339 92.6651 12.8047 92.8266 13.0078C92.9932 13.2109 93.1859 13.3594 93.4047 13.4531C93.6234 13.5417 93.8578 13.5859 94.1078 13.5859C94.7172 13.5859 95.1964 13.4453 95.5453 13.1641C95.8995 12.8776 96.1495 12.5104 96.2953 12.0625C96.4464 11.6094 96.5219 11.1276 96.5219 10.6172ZM100.203 7.35156V14H99.6172V5.54688H100.18L100.203 7.35156ZM100.086 9.10938L99.8047 8.75C99.8359 8.30208 99.9245 7.8776 100.07 7.47656C100.221 7.07031 100.419 6.71094 100.664 6.39844C100.914 6.08594 101.203 5.84115 101.531 5.66406C101.859 5.48177 102.224 5.39062 102.625 5.39062C102.984 5.39062 103.305 5.45052 103.586 5.57031C103.867 5.6849 104.104 5.86719 104.297 6.11719C104.49 6.36719 104.638 6.6901 104.742 7.08594C104.846 7.48177 104.898 7.95833 104.898 8.51562V14H104.312V8.50781C104.312 7.84115 104.237 7.32292 104.086 6.95312C103.935 6.58333 103.724 6.32552 103.453 6.17969C103.182 6.02865 102.867 5.95312 102.508 5.95312C102.096 5.95312 101.74 6.0651 101.438 6.28906C101.141 6.50781 100.893 6.78646 100.695 7.125C100.497 7.46354 100.349 7.8125 100.25 8.17188C100.151 8.52604 100.096 8.83854 100.086 9.10938ZM113.636 8.58594V9.14062H110.511V8.58594H113.636ZM122.17 14H119.92L119.928 13.4297H122.17C122.863 13.4297 123.465 13.276 123.975 12.9688C124.485 12.6615 124.881 12.2188 125.162 11.6406C125.444 11.0625 125.584 10.3646 125.584 9.54688V7.0625C125.584 6.44792 125.504 5.90104 125.342 5.42188C125.181 4.94271 124.949 4.53646 124.647 4.20312C124.35 3.86979 123.993 3.61719 123.577 3.44531C123.165 3.27344 122.704 3.1875 122.194 3.1875H119.881V2.625H122.194C122.782 2.625 123.319 2.72396 123.803 2.92188C124.293 3.11458 124.715 3.40365 125.069 3.78906C125.423 4.16927 125.694 4.63542 125.881 5.1875C126.074 5.73438 126.17 6.36458 126.17 7.07812V9.54688C126.17 10.2604 126.074 10.8932 125.881 11.4453C125.694 11.9974 125.42 12.4635 125.061 12.8438C124.707 13.224 124.285 13.513 123.795 13.7109C123.306 13.9036 122.764 14 122.17 14ZM120.123 2.625V14H119.53V2.625H120.123ZM128.289 10.2188V9.32031C128.289 8.69531 128.359 8.14062 128.5 7.65625C128.641 7.17188 128.841 6.76042 129.102 6.42188C129.367 6.08333 129.685 5.82812 130.055 5.65625C130.43 5.47917 130.846 5.39062 131.305 5.39062C131.773 5.39062 132.193 5.47917 132.562 5.65625C132.932 5.82812 133.247 6.08333 133.508 6.42188C133.768 6.76042 133.969 7.17188 134.109 7.65625C134.25 8.14062 134.32 8.69531 134.32 9.32031V10.2188C134.32 10.8438 134.25 11.401 134.109 11.8906C133.969 12.3802 133.768 12.7943 133.508 13.1328C133.247 13.4714 132.932 13.7292 132.562 13.9062C132.193 14.0833 131.776 14.1719 131.312 14.1719C130.849 14.1719 130.43 14.0833 130.055 13.9062C129.685 13.7292 129.367 13.4714 129.102 13.1328C128.841 12.7943 128.641 12.3802 128.5 11.8906C128.359 11.401 128.289 10.8438 128.289 10.2188ZM128.883 9.32031V10.2188C128.883 10.7083 128.932 11.1615 129.031 11.5781C129.135 11.9896 129.289 12.3464 129.492 12.6484C129.695 12.9505 129.948 13.1849 130.25 13.3516C130.557 13.5182 130.911 13.6016 131.312 13.6016C131.719 13.6016 132.073 13.5182 132.375 13.3516C132.682 13.1849 132.935 12.9505 133.133 12.6484C133.336 12.3464 133.487 11.9896 133.586 11.5781C133.685 11.1615 133.734 10.7083 133.734 10.2188V9.32031C133.734 8.83594 133.682 8.39062 133.578 7.98438C133.479 7.57292 133.326 7.21615 133.117 6.91406C132.914 6.61198 132.661 6.3776 132.359 6.21094C132.057 6.03906 131.708 5.95312 131.312 5.95312C130.911 5.95312 130.557 6.03906 130.25 6.21094C129.948 6.3776 129.695 6.61198 129.492 6.91406C129.289 7.21615 129.135 7.57292 129.031 7.98438C128.932 8.39062 128.883 8.83594 128.883 9.32031ZM137.134 7.32812V14H136.525V5.54688H137.119L137.134 7.32812ZM137.033 9.10938L136.744 8.75C136.78 8.30208 136.866 7.8776 137.002 7.47656C137.142 7.07031 137.332 6.71094 137.572 6.39844C137.811 6.08594 138.095 5.84115 138.423 5.66406C138.757 5.48177 139.129 5.39062 139.541 5.39062C139.89 5.39062 140.207 5.44792 140.494 5.5625C140.78 5.67188 141.022 5.84635 141.22 6.08594C141.418 6.32031 141.569 6.6276 141.673 7.00781C141.783 7.38802 141.838 7.84635 141.838 8.38281V14H141.252V8.38281C141.252 7.7474 141.171 7.25521 141.009 6.90625C140.853 6.55208 140.637 6.30469 140.361 6.16406C140.085 6.02344 139.765 5.95312 139.4 5.95312C138.978 5.95312 138.619 6.0651 138.322 6.28906C138.025 6.50781 137.783 6.78646 137.595 7.125C137.408 7.46354 137.27 7.8125 137.181 8.17188C137.093 8.52604 137.043 8.83854 137.033 9.10938ZM141.83 8.42188L141.431 8.27344C141.468 7.89323 141.559 7.53125 141.705 7.1875C141.851 6.84375 142.043 6.53646 142.283 6.26562C142.522 5.99479 142.806 5.78125 143.134 5.625C143.468 5.46875 143.838 5.39062 144.244 5.39062C144.614 5.39062 144.942 5.45052 145.228 5.57031C145.515 5.6849 145.757 5.86719 145.955 6.11719C146.158 6.36719 146.311 6.6901 146.416 7.08594C146.52 7.47656 146.572 7.95052 146.572 8.50781V14H145.97V8.50781C145.97 7.83073 145.892 7.30729 145.736 6.9375C145.58 6.56771 145.364 6.3099 145.088 6.16406C144.811 6.01823 144.491 5.94792 144.127 5.95312C143.752 5.95833 143.421 6.04427 143.134 6.21094C142.853 6.3776 142.619 6.58854 142.431 6.84375C142.244 7.09896 142.101 7.36979 142.002 7.65625C141.903 7.9375 141.845 8.19271 141.83 8.42188ZM158.403 7.28906V9.32031C158.403 10.0964 158.338 10.7839 158.208 11.3828C158.078 11.9818 157.888 12.4896 157.638 12.9062C157.393 13.3177 157.088 13.6302 156.723 13.8438C156.364 14.0521 155.95 14.1562 155.481 14.1562C155.111 14.1562 154.773 14.0885 154.466 13.9531C154.164 13.8177 153.893 13.6172 153.653 13.3516C153.419 13.0807 153.218 12.75 153.052 12.3594C152.89 11.9688 152.765 11.5208 152.677 11.0156C152.593 10.5104 152.552 9.94531 152.552 9.32031V7.28906C152.552 6.51302 152.617 5.82552 152.747 5.22656C152.882 4.6276 153.075 4.1224 153.325 3.71094C153.575 3.29948 153.88 2.98698 154.239 2.77344C154.604 2.5599 155.015 2.45312 155.473 2.45312C155.843 2.45312 156.182 2.52344 156.489 2.66406C156.796 2.79948 157.067 3 157.302 3.26562C157.541 3.53125 157.742 3.85938 157.903 4.25C158.065 4.63542 158.187 5.08333 158.27 5.59375C158.359 6.10417 158.403 6.66927 158.403 7.28906ZM157.802 9.34375V7.24219C157.802 6.72135 157.77 6.24219 157.708 5.80469C157.651 5.36719 157.562 4.97656 157.442 4.63281C157.322 4.28906 157.166 3.9974 156.973 3.75781C156.786 3.51823 156.567 3.33594 156.317 3.21094C156.067 3.08594 155.786 3.02344 155.473 3.02344C155.083 3.02344 154.742 3.1224 154.45 3.32031C154.158 3.51302 153.916 3.79427 153.723 4.16406C153.531 4.52865 153.385 4.97135 153.286 5.49219C153.187 6.00781 153.138 6.59115 153.138 7.24219V9.34375C153.138 9.85938 153.169 10.3359 153.231 10.7734C153.294 11.2057 153.388 11.5964 153.513 11.9453C153.638 12.2943 153.794 12.5938 153.981 12.8438C154.174 13.0885 154.393 13.276 154.638 13.4062C154.888 13.5312 155.169 13.5938 155.481 13.5938C155.877 13.5938 156.218 13.4948 156.505 13.2969C156.796 13.0938 157.039 12.8047 157.231 12.4297C157.424 12.0547 157.567 11.6068 157.661 11.0859C157.755 10.5651 157.802 9.98438 157.802 9.34375ZM165.092 2.49219H165.202V3.0625H165.092C164.498 3.0625 163.957 3.17708 163.467 3.40625C162.983 3.63021 162.561 3.97135 162.202 4.42969C161.847 4.88281 161.571 5.45573 161.373 6.14844C161.181 6.83594 161.084 7.64583 161.084 8.57812V10.0859C161.084 10.6224 161.147 11.1068 161.272 11.5391C161.402 11.9714 161.582 12.3438 161.811 12.6562C162.04 12.9635 162.308 13.1979 162.616 13.3594C162.923 13.5208 163.256 13.6016 163.616 13.6016C163.959 13.6016 164.267 13.513 164.538 13.3359C164.808 13.1589 165.04 12.9167 165.233 12.6094C165.426 12.2969 165.571 11.9401 165.67 11.5391C165.774 11.138 165.827 10.7135 165.827 10.2656C165.827 9.82812 165.78 9.41927 165.686 9.03906C165.592 8.65885 165.449 8.32292 165.256 8.03125C165.069 7.73438 164.832 7.50521 164.545 7.34375C164.264 7.17708 163.931 7.09375 163.545 7.09375C163.118 7.09375 162.712 7.21094 162.327 7.44531C161.946 7.67969 161.636 7.99479 161.397 8.39062C161.157 8.78125 161.032 9.21354 161.022 9.6875L160.663 9.66406C160.683 9.23177 160.772 8.82812 160.928 8.45312C161.084 8.07292 161.295 7.73958 161.561 7.45312C161.827 7.16146 162.134 6.9349 162.483 6.77344C162.837 6.60677 163.222 6.52344 163.639 6.52344C164.087 6.52344 164.483 6.61979 164.827 6.8125C165.176 7 165.465 7.26302 165.694 7.60156C165.928 7.9401 166.105 8.33594 166.225 8.78906C166.35 9.23698 166.413 9.72396 166.413 10.25C166.413 10.8021 166.347 11.3151 166.217 11.7891C166.087 12.263 165.899 12.6771 165.655 13.0312C165.41 13.3854 165.116 13.6615 164.772 13.8594C164.428 14.0573 164.043 14.1562 163.616 14.1562C163.157 14.1562 162.735 14.0599 162.35 13.8672C161.97 13.6693 161.642 13.388 161.366 13.0234C161.09 12.6589 160.876 12.2292 160.725 11.7344C160.579 11.2344 160.506 10.6849 160.506 10.0859V8.88281C160.506 7.8151 160.61 6.88021 160.819 6.07812C161.032 5.27604 161.34 4.60938 161.741 4.07812C162.142 3.54688 162.623 3.15104 163.186 2.89062C163.748 2.625 164.384 2.49219 165.092 2.49219ZM168.391 13.5469C168.391 13.4062 168.438 13.2865 168.531 13.1875C168.625 13.0833 168.753 13.0312 168.914 13.0312C169.076 13.0312 169.206 13.0807 169.305 13.1797C169.409 13.2786 169.461 13.401 169.461 13.5469C169.461 13.6875 169.409 13.8073 169.305 13.9062C169.206 14.0052 169.076 14.0547 168.914 14.0547C168.753 14.0547 168.625 14.0052 168.531 13.9062C168.438 13.8073 168.391 13.6875 168.391 13.5469ZM168.422 6.17969C168.422 6.03906 168.469 5.91927 168.562 5.82031C168.656 5.71615 168.784 5.66406 168.945 5.66406C169.107 5.66406 169.237 5.71354 169.336 5.8125C169.44 5.91146 169.492 6.03385 169.492 6.17969C169.492 6.32031 169.44 6.4401 169.336 6.53906C169.237 6.63802 169.107 6.6875 168.945 6.6875C168.784 6.6875 168.656 6.63802 168.562 6.53906C168.469 6.4401 168.422 6.32031 168.422 6.17969ZM177.306 7.28906V9.32031C177.306 10.0964 177.241 10.7839 177.111 11.3828C176.981 11.9818 176.791 12.4896 176.541 12.9062C176.296 13.3177 175.991 13.6302 175.627 13.8438C175.267 14.0521 174.853 14.1562 174.384 14.1562C174.015 14.1562 173.676 14.0885 173.369 13.9531C173.067 13.8177 172.796 13.6172 172.556 13.3516C172.322 13.0807 172.121 12.75 171.955 12.3594C171.793 11.9688 171.668 11.5208 171.58 11.0156C171.496 10.5104 171.455 9.94531 171.455 9.32031V7.28906C171.455 6.51302 171.52 5.82552 171.65 5.22656C171.785 4.6276 171.978 4.1224 172.228 3.71094C172.478 3.29948 172.783 2.98698 173.142 2.77344C173.507 2.5599 173.918 2.45312 174.377 2.45312C174.746 2.45312 175.085 2.52344 175.392 2.66406C175.699 2.79948 175.97 3 176.205 3.26562C176.444 3.53125 176.645 3.85938 176.806 4.25C176.968 4.63542 177.09 5.08333 177.173 5.59375C177.262 6.10417 177.306 6.66927 177.306 7.28906ZM176.705 9.34375V7.24219C176.705 6.72135 176.673 6.24219 176.611 5.80469C176.554 5.36719 176.465 4.97656 176.345 4.63281C176.226 4.28906 176.069 3.9974 175.877 3.75781C175.689 3.51823 175.47 3.33594 175.22 3.21094C174.97 3.08594 174.689 3.02344 174.377 3.02344C173.986 3.02344 173.645 3.1224 173.353 3.32031C173.061 3.51302 172.819 3.79427 172.627 4.16406C172.434 4.52865 172.288 4.97135 172.189 5.49219C172.09 6.00781 172.041 6.59115 172.041 7.24219V9.34375C172.041 9.85938 172.072 10.3359 172.134 10.7734C172.197 11.2057 172.291 11.5964 172.416 11.9453C172.541 12.2943 172.697 12.5938 172.884 12.8438C173.077 13.0885 173.296 13.276 173.541 13.4062C173.791 13.5312 174.072 13.5938 174.384 13.5938C174.78 13.5938 175.121 13.4948 175.408 13.2969C175.699 13.0938 175.942 12.8047 176.134 12.4297C176.327 12.0547 176.47 11.6068 176.564 11.0859C176.658 10.5651 176.705 9.98438 176.705 9.34375ZM185.206 7.28906V9.32031C185.206 10.0964 185.141 10.7839 185.011 11.3828C184.881 11.9818 184.691 12.4896 184.441 12.9062C184.196 13.3177 183.891 13.6302 183.527 13.8438C183.167 14.0521 182.753 14.1562 182.284 14.1562C181.915 14.1562 181.576 14.0885 181.269 13.9531C180.967 13.8177 180.696 13.6172 180.456 13.3516C180.222 13.0807 180.021 12.75 179.855 12.3594C179.693 11.9688 179.568 11.5208 179.48 11.0156C179.396 10.5104 179.355 9.94531 179.355 9.32031V7.28906C179.355 6.51302 179.42 5.82552 179.55 5.22656C179.685 4.6276 179.878 4.1224 180.128 3.71094C180.378 3.29948 180.683 2.98698 181.042 2.77344C181.407 2.5599 181.818 2.45312 182.277 2.45312C182.646 2.45312 182.985 2.52344 183.292 2.66406C183.599 2.79948 183.87 3 184.105 3.26562C184.344 3.53125 184.545 3.85938 184.706 4.25C184.868 4.63542 184.99 5.08333 185.073 5.59375C185.162 6.10417 185.206 6.66927 185.206 7.28906ZM184.605 9.34375V7.24219C184.605 6.72135 184.573 6.24219 184.511 5.80469C184.454 5.36719 184.365 4.97656 184.245 4.63281C184.126 4.28906 183.969 3.9974 183.777 3.75781C183.589 3.51823 183.37 3.33594 183.12 3.21094C182.87 3.08594 182.589 3.02344 182.277 3.02344C181.886 3.02344 181.545 3.1224 181.253 3.32031C180.961 3.51302 180.719 3.79427 180.527 4.16406C180.334 4.52865 180.188 4.97135 180.089 5.49219C179.99 6.00781 179.941 6.59115 179.941 7.24219V9.34375C179.941 9.85938 179.972 10.3359 180.034 10.7734C180.097 11.2057 180.191 11.5964 180.316 11.9453C180.441 12.2943 180.597 12.5938 180.784 12.8438C180.977 13.0885 181.196 13.276 181.441 13.4062C181.691 13.5312 181.972 13.5938 182.284 13.5938C182.68 13.5938 183.021 13.4948 183.308 13.2969C183.599 13.0938 183.842 12.8047 184.034 12.4297C184.227 12.0547 184.37 11.6068 184.464 11.0859C184.558 10.5651 184.605 9.98438 184.605 9.34375ZM196.834 7.28906V9.32031C196.834 10.0964 196.769 10.7839 196.639 11.3828C196.509 11.9818 196.319 12.4896 196.069 12.9062C195.824 13.3177 195.519 13.6302 195.155 13.8438C194.795 14.0521 194.381 14.1562 193.913 14.1562C193.543 14.1562 193.204 14.0885 192.897 13.9531C192.595 13.8177 192.324 13.6172 192.084 13.3516C191.85 13.0807 191.649 12.75 191.483 12.3594C191.321 11.9688 191.196 11.5208 191.108 11.0156C191.024 10.5104 190.983 9.94531 190.983 9.32031V7.28906C190.983 6.51302 191.048 5.82552 191.178 5.22656C191.314 4.6276 191.506 4.1224 191.756 3.71094C192.006 3.29948 192.311 2.98698 192.67 2.77344C193.035 2.5599 193.446 2.45312 193.905 2.45312C194.274 2.45312 194.613 2.52344 194.92 2.66406C195.228 2.79948 195.498 3 195.733 3.26562C195.972 3.53125 196.173 3.85938 196.334 4.25C196.496 4.63542 196.618 5.08333 196.702 5.59375C196.79 6.10417 196.834 6.66927 196.834 7.28906ZM196.233 9.34375V7.24219C196.233 6.72135 196.202 6.24219 196.139 5.80469C196.082 5.36719 195.993 4.97656 195.873 4.63281C195.754 4.28906 195.597 3.9974 195.405 3.75781C195.217 3.51823 194.998 3.33594 194.748 3.21094C194.498 3.08594 194.217 3.02344 193.905 3.02344C193.514 3.02344 193.173 3.1224 192.881 3.32031C192.59 3.51302 192.347 3.79427 192.155 4.16406C191.962 4.52865 191.816 4.97135 191.717 5.49219C191.618 6.00781 191.569 6.59115 191.569 7.24219V9.34375C191.569 9.85938 191.6 10.3359 191.663 10.7734C191.725 11.2057 191.819 11.5964 191.944 11.9453C192.069 12.2943 192.225 12.5938 192.413 12.8438C192.605 13.0885 192.824 13.276 193.069 13.4062C193.319 13.5312 193.6 13.5938 193.913 13.5938C194.308 13.5938 194.649 13.4948 194.936 13.2969C195.228 13.0938 195.47 12.8047 195.663 12.4297C195.855 12.0547 195.998 11.6068 196.092 11.0859C196.186 10.5651 196.233 9.98438 196.233 9.34375ZM202.562 2.59375V14H201.969V3.36719L199.289 4.57812V3.96094L202.445 2.59375H202.562ZM206.822 13.5469C206.822 13.4062 206.869 13.2865 206.962 13.1875C207.056 13.0833 207.184 13.0312 207.345 13.0312C207.507 13.0312 207.637 13.0807 207.736 13.1797C207.84 13.2786 207.892 13.401 207.892 13.5469C207.892 13.6875 207.84 13.8073 207.736 13.9062C207.637 14.0052 207.507 14.0547 207.345 14.0547C207.184 14.0547 207.056 14.0052 206.962 13.9062C206.869 13.8073 206.822 13.6875 206.822 13.5469ZM206.853 6.17969C206.853 6.03906 206.9 5.91927 206.994 5.82031C207.087 5.71615 207.215 5.66406 207.377 5.66406C207.538 5.66406 207.668 5.71354 207.767 5.8125C207.871 5.91146 207.923 6.03385 207.923 6.17969C207.923 6.32031 207.871 6.4401 207.767 6.53906C207.668 6.63802 207.538 6.6875 207.377 6.6875C207.215 6.6875 207.087 6.63802 206.994 6.53906C206.9 6.4401 206.853 6.32031 206.853 6.17969ZM215.737 7.28906V9.32031C215.737 10.0964 215.672 10.7839 215.542 11.3828C215.412 11.9818 215.222 12.4896 214.972 12.9062C214.727 13.3177 214.422 13.6302 214.058 13.8438C213.698 14.0521 213.284 14.1562 212.816 14.1562C212.446 14.1562 212.107 14.0885 211.8 13.9531C211.498 13.8177 211.227 13.6172 210.987 13.3516C210.753 13.0807 210.553 12.75 210.386 12.3594C210.224 11.9688 210.099 11.5208 210.011 11.0156C209.928 10.5104 209.886 9.94531 209.886 9.32031V7.28906C209.886 6.51302 209.951 5.82552 210.081 5.22656C210.217 4.6276 210.409 4.1224 210.659 3.71094C210.909 3.29948 211.214 2.98698 211.573 2.77344C211.938 2.5599 212.349 2.45312 212.808 2.45312C213.178 2.45312 213.516 2.52344 213.823 2.66406C214.131 2.79948 214.402 3 214.636 3.26562C214.876 3.53125 215.076 3.85938 215.237 4.25C215.399 4.63542 215.521 5.08333 215.605 5.59375C215.693 6.10417 215.737 6.66927 215.737 7.28906ZM215.136 9.34375V7.24219C215.136 6.72135 215.105 6.24219 215.042 5.80469C214.985 5.36719 214.896 4.97656 214.777 4.63281C214.657 4.28906 214.501 3.9974 214.308 3.75781C214.12 3.51823 213.902 3.33594 213.652 3.21094C213.402 3.08594 213.12 3.02344 212.808 3.02344C212.417 3.02344 212.076 3.1224 211.784 3.32031C211.493 3.51302 211.251 3.79427 211.058 4.16406C210.865 4.52865 210.719 4.97135 210.62 5.49219C210.521 6.00781 210.472 6.59115 210.472 7.24219V9.34375C210.472 9.85938 210.503 10.3359 210.566 10.7734C210.628 11.2057 210.722 11.5964 210.847 11.9453C210.972 12.2943 211.128 12.5938 211.316 12.8438C211.508 13.0885 211.727 13.276 211.972 13.4062C212.222 13.5312 212.503 13.5938 212.816 13.5938C213.211 13.5938 213.553 13.4948 213.839 13.2969C214.131 13.0938 214.373 12.8047 214.566 12.4297C214.758 12.0547 214.902 11.6068 214.995 11.0859C215.089 10.5651 215.136 9.98438 215.136 9.34375ZM223.638 7.28906V9.32031C223.638 10.0964 223.572 10.7839 223.442 11.3828C223.312 11.9818 223.122 12.4896 222.872 12.9062C222.627 13.3177 222.322 13.6302 221.958 13.8438C221.598 14.0521 221.184 14.1562 220.716 14.1562C220.346 14.1562 220.007 14.0885 219.7 13.9531C219.398 13.8177 219.127 13.6172 218.888 13.3516C218.653 13.0807 218.453 12.75 218.286 12.3594C218.124 11.9688 217.999 11.5208 217.911 11.0156C217.828 10.5104 217.786 9.94531 217.786 9.32031V7.28906C217.786 6.51302 217.851 5.82552 217.981 5.22656C218.117 4.6276 218.309 4.1224 218.559 3.71094C218.809 3.29948 219.114 2.98698 219.473 2.77344C219.838 2.5599 220.249 2.45312 220.708 2.45312C221.078 2.45312 221.416 2.52344 221.723 2.66406C222.031 2.79948 222.302 3 222.536 3.26562C222.776 3.53125 222.976 3.85938 223.138 4.25C223.299 4.63542 223.421 5.08333 223.505 5.59375C223.593 6.10417 223.638 6.66927 223.638 7.28906ZM223.036 9.34375V7.24219C223.036 6.72135 223.005 6.24219 222.942 5.80469C222.885 5.36719 222.796 4.97656 222.677 4.63281C222.557 4.28906 222.401 3.9974 222.208 3.75781C222.02 3.51823 221.802 3.33594 221.552 3.21094C221.302 3.08594 221.02 3.02344 220.708 3.02344C220.317 3.02344 219.976 3.1224 219.684 3.32031C219.393 3.51302 219.151 3.79427 218.958 4.16406C218.765 4.52865 218.619 4.97135 218.52 5.49219C218.421 6.00781 218.372 6.59115 218.372 7.24219V9.34375C218.372 9.85938 218.403 10.3359 218.466 10.7734C218.528 11.2057 218.622 11.5964 218.747 11.9453C218.872 12.2943 219.028 12.5938 219.216 12.8438C219.408 13.0885 219.627 13.276 219.872 13.4062C220.122 13.5312 220.403 13.5938 220.716 13.5938C221.111 13.5938 221.453 13.4948 221.739 13.2969C222.031 13.0938 222.273 12.8047 222.466 12.4297C222.658 12.0547 222.802 11.6068 222.895 11.0859C222.989 10.5651 223.036 9.98438 223.036 9.34375Z" fill="white"/>
</svg>
