<svg width="278" height="38" viewBox="0 0 278 38" fill="none" xmlns="http://www.w3.org/2000/svg">
<path d="M113.109 7.35059C113.109 7.78516 113.026 8.19287 112.86 8.57373C112.694 8.95459 112.467 9.28906 112.179 9.57715C111.896 9.86035 111.564 10.085 111.183 10.251C110.802 10.417 110.394 10.5 109.96 10.5H104.708V-0.00292969H109.96C110.394 -0.00292969 110.802 0.0800781 111.183 0.246094C111.564 0.412109 111.896 0.63916 112.179 0.927246C112.467 1.21045 112.694 1.54248 112.86 1.92334C113.026 2.3042 113.109 2.71191 113.109 3.14648C113.109 3.3418 113.082 3.54199 113.029 3.74707C112.975 3.95215 112.899 4.1499 112.802 4.34033C112.704 4.53076 112.587 4.7041 112.45 4.86035C112.313 5.0166 112.162 5.146 111.996 5.24854C112.167 5.34131 112.321 5.46826 112.457 5.62939C112.594 5.78564 112.711 5.95898 112.809 6.14941C112.907 6.33984 112.98 6.54004 113.029 6.75C113.082 6.95508 113.109 7.15527 113.109 7.35059ZM106.81 8.39795H109.96C110.106 8.39795 110.243 8.37109 110.37 8.31738C110.497 8.26367 110.607 8.19043 110.7 8.09766C110.797 8 110.873 7.8877 110.927 7.76074C110.98 7.63379 111.007 7.49707 111.007 7.35059C111.007 7.2041 110.98 7.06738 110.927 6.94043C110.873 6.81348 110.797 6.70361 110.7 6.61084C110.607 6.51318 110.497 6.4375 110.37 6.38379C110.243 6.33008 110.106 6.30322 109.96 6.30322H106.81V8.39795ZM106.81 4.20117H109.96C110.106 4.20117 110.243 4.17432 110.37 4.12061C110.497 4.06689 110.607 3.99365 110.7 3.90088C110.797 3.80322 110.873 3.69092 110.927 3.56396C110.98 3.43213 111.007 3.29297 111.007 3.14648C111.007 3 110.98 2.86328 110.927 2.73633C110.873 2.60938 110.797 2.49951 110.7 2.40674C110.607 2.30908 110.497 2.2334 110.37 2.17969C110.243 2.12598 110.106 2.09912 109.96 2.09912H106.81V4.20117ZM122.231 10.5H121.748L120.972 9.42334C120.781 9.59424 120.579 9.75537 120.364 9.90674C120.154 10.0532 119.932 10.1826 119.697 10.2949C119.463 10.4023 119.221 10.4878 118.972 10.5513C118.728 10.6147 118.479 10.6465 118.225 10.6465C117.673 10.6465 117.153 10.5537 116.665 10.3682C116.182 10.1826 115.757 9.91406 115.391 9.5625C115.029 9.20605 114.744 8.77148 114.534 8.25879C114.324 7.74609 114.219 7.1626 114.219 6.5083C114.219 5.89795 114.324 5.33887 114.534 4.83105C114.744 4.31836 115.029 3.87891 115.391 3.5127C115.757 3.14648 116.182 2.86328 116.665 2.66309C117.153 2.45801 117.673 2.35547 118.225 2.35547C118.479 2.35547 118.73 2.38721 118.979 2.45068C119.229 2.51416 119.47 2.60205 119.705 2.71436C119.939 2.82666 120.161 2.9585 120.371 3.10986C120.586 3.26123 120.786 3.4248 120.972 3.60059L121.748 2.67041H122.231V10.5ZM120.217 6.5083C120.217 6.23486 120.164 5.97119 120.056 5.71729C119.954 5.4585 119.812 5.23145 119.631 5.03613C119.451 4.83594 119.238 4.67725 118.994 4.56006C118.755 4.43799 118.499 4.37695 118.225 4.37695C117.952 4.37695 117.693 4.42334 117.449 4.51611C117.209 4.60889 117 4.74561 116.819 4.92627C116.643 5.10693 116.504 5.33154 116.401 5.6001C116.299 5.86377 116.248 6.1665 116.248 6.5083C116.248 6.8501 116.299 7.15527 116.401 7.42383C116.504 7.6875 116.643 7.90967 116.819 8.09033C117 8.271 117.209 8.40771 117.449 8.50049C117.693 8.59326 117.952 8.63965 118.225 8.63965C118.499 8.63965 118.755 8.58105 118.994 8.46387C119.238 8.3418 119.451 8.18311 119.631 7.98779C119.812 7.7876 119.954 7.56055 120.056 7.30664C120.164 7.04785 120.217 6.78174 120.217 6.5083ZM125.912 10.5H123.912V2.65576H124.396L125.055 3.58594C125.377 3.29297 125.743 3.06836 126.153 2.91211C126.564 2.75098 126.988 2.67041 127.428 2.67041H129.193V4.6626H127.428C127.218 4.6626 127.02 4.70166 126.835 4.77979C126.649 4.85791 126.488 4.96533 126.351 5.10205C126.214 5.23877 126.107 5.3999 126.029 5.58545C125.951 5.771 125.912 5.96875 125.912 6.17871V10.5ZM136.942 2.09912V6.30322H139.044C139.332 6.30322 139.603 6.24951 139.857 6.14209C140.111 6.02979 140.333 5.87842 140.523 5.68799C140.714 5.49756 140.863 5.27539 140.97 5.02148C141.082 4.7627 141.138 4.48926 141.138 4.20117C141.138 3.91309 141.082 3.64209 140.97 3.38818C140.863 3.12939 140.714 2.90479 140.523 2.71436C140.333 2.52393 140.111 2.375 139.857 2.26758C139.603 2.15527 139.332 2.09912 139.044 2.09912H136.942ZM136.942 10.5H134.84V-0.00292969H139.044C139.429 -0.00292969 139.801 0.0483398 140.157 0.150879C140.513 0.248535 140.846 0.390137 141.153 0.575684C141.466 0.756348 141.749 0.976074 142.003 1.23486C142.262 1.48877 142.481 1.77197 142.662 2.08447C142.847 2.39697 142.989 2.73145 143.087 3.08789C143.189 3.44434 143.241 3.81543 143.241 4.20117C143.241 4.5625 143.194 4.91406 143.101 5.25586C143.013 5.59766 142.884 5.92236 142.713 6.22998C142.547 6.5376 142.342 6.8208 142.098 7.07959C141.854 7.33838 141.58 7.56299 141.278 7.75342L142.442 10.5H140.208L139.293 8.3833L136.942 8.39795V10.5ZM152.055 6.5083C152.055 7.09424 151.95 7.64111 151.74 8.14893C151.53 8.65186 151.245 9.08887 150.883 9.45996C150.522 9.82617 150.097 10.1167 149.609 10.3315C149.125 10.5415 148.605 10.6465 148.049 10.6465C147.497 10.6465 146.977 10.5415 146.489 10.3315C146.005 10.1167 145.58 9.82617 145.214 9.45996C144.853 9.08887 144.567 8.65186 144.357 8.14893C144.147 7.64111 144.042 7.09424 144.042 6.5083C144.042 5.9126 144.147 5.36084 144.357 4.85303C144.567 4.34521 144.853 3.9082 145.214 3.54199C145.58 3.1709 146.005 2.88037 146.489 2.67041C146.977 2.46045 147.497 2.35547 148.049 2.35547C148.605 2.35547 149.125 2.45557 149.609 2.65576C150.097 2.85107 150.522 3.13184 150.883 3.49805C151.245 3.85938 151.53 4.29639 151.74 4.80908C151.95 5.31689 152.055 5.8833 152.055 6.5083ZM150.041 6.5083C150.041 6.18604 149.987 5.89551 149.88 5.63672C149.777 5.37305 149.636 5.14844 149.455 4.96289C149.274 4.77246 149.062 4.62842 148.818 4.53076C148.579 4.42822 148.322 4.37695 148.049 4.37695C147.775 4.37695 147.517 4.42822 147.272 4.53076C147.033 4.62842 146.823 4.77246 146.642 4.96289C146.467 5.14844 146.328 5.37305 146.225 5.63672C146.122 5.89551 146.071 6.18604 146.071 6.5083C146.071 6.81104 146.122 7.0918 146.225 7.35059C146.328 7.60938 146.467 7.83398 146.642 8.02441C146.823 8.21484 147.033 8.36621 147.272 8.47852C147.517 8.58594 147.775 8.63965 148.049 8.63965C148.322 8.63965 148.579 8.58838 148.818 8.48584C149.062 8.3833 149.274 8.23926 149.455 8.05371C149.636 7.86816 149.777 7.64355 149.88 7.37988C149.987 7.11621 150.041 6.82568 150.041 6.5083ZM163.287 10.5H161.294V5.51953C161.294 5.38281 161.268 5.25342 161.214 5.13135C161.165 5.00928 161.094 4.90186 161.001 4.80908C160.909 4.71631 160.801 4.64551 160.679 4.59668C160.557 4.54297 160.428 4.51611 160.291 4.51611C160.154 4.51611 160.025 4.54297 159.903 4.59668C159.786 4.64551 159.681 4.71631 159.588 4.80908C159.5 4.90186 159.429 5.00928 159.375 5.13135C159.327 5.25342 159.302 5.38281 159.302 5.51953V10.5H157.303V5.51953C157.303 5.38281 157.276 5.25342 157.222 5.13135C157.173 5.00928 157.103 4.90186 157.01 4.80908C156.917 4.71631 156.81 4.64551 156.688 4.59668C156.565 4.54297 156.436 4.51611 156.299 4.51611C156.163 4.51611 156.033 4.54297 155.911 4.59668C155.794 4.64551 155.689 4.71631 155.596 4.80908C155.508 4.90186 155.438 5.00928 155.384 5.13135C155.335 5.25342 155.311 5.38281 155.311 5.51953V10.5H153.311V2.65576H153.794L154.336 3.25635C154.615 3.02197 154.92 2.84131 155.252 2.71436C155.589 2.58252 155.938 2.5166 156.299 2.5166C156.666 2.5166 157.022 2.58496 157.369 2.72168C157.72 2.8584 158.028 3.09521 158.292 3.43213C158.414 3.26611 158.553 3.12451 158.709 3.00732C158.865 2.89014 159.029 2.79492 159.2 2.72168C159.375 2.64844 159.556 2.59717 159.742 2.56787C159.927 2.53369 160.11 2.5166 160.291 2.5166C160.706 2.5166 161.094 2.59473 161.456 2.75098C161.822 2.90723 162.139 3.12207 162.408 3.39551C162.681 3.66406 162.896 3.98145 163.052 4.34766C163.208 4.71387 163.287 5.10449 163.287 5.51953V10.5ZM172.497 10.5H172.013L171.237 9.42334C171.046 9.59424 170.844 9.75537 170.629 9.90674C170.419 10.0532 170.197 10.1826 169.962 10.2949C169.728 10.4023 169.486 10.4878 169.237 10.5513C168.993 10.6147 168.744 10.6465 168.49 10.6465C167.939 10.6465 167.419 10.5537 166.93 10.3682C166.447 10.1826 166.022 9.91406 165.656 9.5625C165.295 9.20605 165.009 8.77148 164.799 8.25879C164.589 7.74609 164.484 7.1626 164.484 6.5083C164.484 5.89795 164.589 5.33887 164.799 4.83105C165.009 4.31836 165.295 3.87891 165.656 3.5127C166.022 3.14648 166.447 2.86328 166.93 2.66309C167.419 2.45801 167.939 2.35547 168.49 2.35547C168.744 2.35547 168.996 2.38721 169.245 2.45068C169.494 2.51416 169.735 2.60205 169.97 2.71436C170.204 2.82666 170.426 2.9585 170.636 3.10986C170.851 3.26123 171.051 3.4248 171.237 3.60059L172.013 2.67041H172.497V10.5ZM170.483 6.5083C170.483 6.23486 170.429 5.97119 170.321 5.71729C170.219 5.4585 170.077 5.23145 169.897 5.03613C169.716 4.83594 169.504 4.67725 169.259 4.56006C169.02 4.43799 168.764 4.37695 168.49 4.37695C168.217 4.37695 167.958 4.42334 167.714 4.51611C167.475 4.60889 167.265 4.74561 167.084 4.92627C166.908 5.10693 166.769 5.33154 166.667 5.6001C166.564 5.86377 166.513 6.1665 166.513 6.5083C166.513 6.8501 166.564 7.15527 166.667 7.42383C166.769 7.6875 166.908 7.90967 167.084 8.09033C167.265 8.271 167.475 8.40771 167.714 8.50049C167.958 8.59326 168.217 8.63965 168.49 8.63965C168.764 8.63965 169.02 8.58105 169.259 8.46387C169.504 8.3418 169.716 8.18311 169.897 7.98779C170.077 7.7876 170.219 7.56055 170.321 7.30664C170.429 7.04785 170.483 6.78174 170.483 6.5083ZM8.83467 29.2485C8.83467 29.7319 8.77119 30.1982 8.64424 30.6475C8.52217 31.0918 8.34639 31.5093 8.1169 31.8999C7.88741 32.2856 7.61397 32.6396 7.29659 32.9619C6.9792 33.2793 6.6252 33.5527 6.23457 33.7822C5.84395 34.0117 5.42403 34.1899 4.97481 34.3169C4.53047 34.439 4.0666 34.5 3.58321 34.5H0.419144V23.9971H3.58321C4.0666 23.9971 4.53047 24.0605 4.97481 24.1875C5.42403 24.3096 5.84395 24.4854 6.23457 24.7148C6.6252 24.9443 6.9792 25.2202 7.29659 25.5425C7.61397 25.8599 7.88741 26.2139 8.1169 26.6045C8.34639 26.9902 8.52217 27.4077 8.64424 27.8569C8.77119 28.3013 8.83467 28.7651 8.83467 29.2485ZM6.73262 29.2485C6.73262 28.814 6.64961 28.4062 6.4836 28.0254C6.32246 27.6445 6.09785 27.3125 5.80977 27.0293C5.52657 26.7412 5.19209 26.5142 4.80635 26.3481C4.42549 26.1821 4.01778 26.0991 3.58321 26.0991H2.53584V32.3979H3.58321C4.01778 32.3979 4.42549 32.3174 4.80635 32.1562C5.19209 31.9902 5.52657 31.7656 5.80977 31.4824C6.09785 31.1943 6.32246 30.8599 6.4836 30.479C6.64961 30.0933 6.73262 29.6831 6.73262 29.2485ZM17.7518 30.5083C17.7518 31.0942 17.6468 31.6411 17.4368 32.1489C17.2269 32.6519 16.9412 33.0889 16.5799 33.46C16.2186 33.8262 15.7938 34.1167 15.3055 34.3315C14.8221 34.5415 14.3021 34.6465 13.7454 34.6465C13.1937 34.6465 12.6736 34.5415 12.1854 34.3315C11.702 34.1167 11.2772 33.8262 10.9109 33.46C10.5496 33.0889 10.264 32.6519 10.054 32.1489C9.84405 31.6411 9.73907 31.0942 9.73907 30.5083C9.73907 29.9126 9.84405 29.3608 10.054 28.853C10.264 28.3452 10.5496 27.9082 10.9109 27.542C11.2772 27.1709 11.702 26.8804 12.1854 26.6704C12.6736 26.4604 13.1937 26.3555 13.7454 26.3555C14.3021 26.3555 14.8221 26.4556 15.3055 26.6558C15.7938 26.8511 16.2186 27.1318 16.5799 27.498C16.9412 27.8594 17.2269 28.2964 17.4368 28.8091C17.6468 29.3169 17.7518 29.8833 17.7518 30.5083ZM15.7376 30.5083C15.7376 30.186 15.6839 29.8955 15.5765 29.6367C15.4739 29.373 15.3323 29.1484 15.1517 28.9629C14.971 28.7725 14.7586 28.6284 14.5145 28.5308C14.2752 28.4282 14.0189 28.377 13.7454 28.377C13.472 28.377 13.2132 28.4282 12.969 28.5308C12.7298 28.6284 12.5198 28.7725 12.3392 28.9629C12.1634 29.1484 12.0242 29.373 11.9217 29.6367C11.8191 29.8955 11.7679 30.186 11.7679 30.5083C11.7679 30.811 11.8191 31.0918 11.9217 31.3506C12.0242 31.6094 12.1634 31.834 12.3392 32.0244C12.5198 32.2148 12.7298 32.3662 12.969 32.4785C13.2132 32.5859 13.472 32.6396 13.7454 32.6396C14.0189 32.6396 14.2752 32.5884 14.5145 32.4858C14.7586 32.3833 14.971 32.2393 15.1517 32.0537C15.3323 31.8682 15.4739 31.6436 15.5765 31.3799C15.6839 31.1162 15.7376 30.8257 15.7376 30.5083ZM20.9999 34.5L18.0116 26.6558H20.2895L22.0033 31.5483L23.7099 26.6558H25.995L23.0067 34.5H20.9999ZM29.7925 32.5811C29.8706 32.6055 29.9487 32.6226 30.0269 32.6323C30.105 32.6372 30.1831 32.6396 30.2612 32.6396C30.4565 32.6396 30.6445 32.6128 30.8252 32.5591C31.0059 32.5054 31.1743 32.4297 31.3306 32.332C31.4917 32.2295 31.6333 32.1074 31.7554 31.9658C31.8823 31.8193 31.9849 31.6582 32.063 31.4824L33.5278 32.9546C33.3423 33.2183 33.1274 33.4551 32.8833 33.665C32.644 33.875 32.3828 34.0532 32.0996 34.1997C31.8213 34.3462 31.5259 34.4561 31.2134 34.5293C30.9058 34.6074 30.5884 34.6465 30.2612 34.6465C29.7095 34.6465 29.1895 34.5439 28.7012 34.3389C28.2178 34.1338 27.793 33.8481 27.4268 33.4819C27.0654 33.1157 26.7798 32.6812 26.5698 32.1782C26.3599 31.6704 26.2549 31.1138 26.2549 30.5083C26.2549 29.8882 26.3599 29.3218 26.5698 28.8091C26.7798 28.2964 27.0654 27.8594 27.4268 27.498C27.793 27.1367 28.2178 26.856 28.7012 26.6558C29.1895 26.4556 29.7095 26.3555 30.2612 26.3555C30.5884 26.3555 30.9082 26.3945 31.2207 26.4727C31.5332 26.5508 31.8286 26.6631 32.1069 26.8096C32.3901 26.9561 32.6538 27.1367 32.898 27.3516C33.1421 27.5615 33.3569 27.7983 33.5425 28.062L29.7925 32.5811ZM30.8179 28.4575C30.7251 28.4233 30.6323 28.4014 30.5396 28.3916C30.4517 28.3818 30.3589 28.377 30.2612 28.377C29.9878 28.377 29.729 28.4282 29.4849 28.5308C29.2456 28.6284 29.0356 28.77 28.855 28.9556C28.6792 29.1411 28.54 29.3657 28.4375 29.6294C28.335 29.8882 28.2837 30.1812 28.2837 30.5083C28.2837 30.5815 28.2861 30.6646 28.291 30.7573C28.3008 30.8501 28.313 30.9453 28.3276 31.043C28.3472 31.1357 28.3691 31.2261 28.3936 31.314C28.418 31.4019 28.4497 31.48 28.4888 31.5483L30.8179 28.4575ZM46.6379 30.5083C46.6379 31.0942 46.5329 31.6411 46.323 32.1489C46.113 32.6519 45.8273 33.0889 45.466 33.46C45.1047 33.8262 44.6799 34.1167 44.1916 34.3315C43.7082 34.5415 43.1882 34.6465 42.6315 34.6465C42.0798 34.6465 41.5598 34.5415 41.0715 34.3315C40.5881 34.1167 40.1633 33.8262 39.7971 33.46C39.4357 33.0889 39.1501 32.6519 38.9401 32.1489C38.7302 31.6411 38.6252 31.0942 38.6252 30.5083C38.6252 29.9126 38.7302 29.3608 38.9401 28.853C39.1501 28.3452 39.4357 27.9082 39.7971 27.542C40.1633 27.1709 40.5881 26.8804 41.0715 26.6704C41.5598 26.4604 42.0798 26.3555 42.6315 26.3555C43.1882 26.3555 43.7082 26.4556 44.1916 26.6558C44.6799 26.8511 45.1047 27.1318 45.466 27.498C45.8273 27.8594 46.113 28.2964 46.323 28.8091C46.5329 29.3169 46.6379 29.8833 46.6379 30.5083ZM44.6237 30.5083C44.6237 30.186 44.57 29.8955 44.4626 29.6367C44.3601 29.373 44.2185 29.1484 44.0378 28.9629C43.8571 28.7725 43.6447 28.6284 43.4006 28.5308C43.1613 28.4282 42.905 28.377 42.6315 28.377C42.3581 28.377 42.0993 28.4282 41.8552 28.5308C41.6159 28.6284 41.406 28.7725 41.2253 28.9629C41.0495 29.1484 40.9104 29.373 40.8078 29.6367C40.7053 29.8955 40.654 30.186 40.654 30.5083C40.654 30.811 40.7053 31.0918 40.8078 31.3506C40.9104 31.6094 41.0495 31.834 41.2253 32.0244C41.406 32.2148 41.6159 32.3662 41.8552 32.4785C42.0993 32.5859 42.3581 32.6396 42.6315 32.6396C42.905 32.6396 43.1613 32.5884 43.4006 32.4858C43.6447 32.3833 43.8571 32.2393 44.0378 32.0537C44.2185 31.8682 44.3601 31.6436 44.4626 31.3799C44.57 31.1162 44.6237 30.8257 44.6237 30.5083ZM53.4749 30.5083C53.4749 30.2349 53.4212 29.9712 53.3138 29.7173C53.2112 29.4585 53.0696 29.2314 52.889 29.0361C52.7083 28.8359 52.4959 28.6772 52.2518 28.5601C52.0125 28.438 51.7562 28.377 51.4827 28.377C51.2093 28.377 50.9505 28.4233 50.7064 28.5161C50.4671 28.6089 50.2571 28.7456 50.0765 28.9263C49.9007 29.1069 49.7615 29.3315 49.659 29.6001C49.5564 29.8638 49.5052 30.1665 49.5052 30.5083C49.5052 30.8354 49.5564 31.1309 49.659 31.3945C49.7615 31.6533 49.9007 31.8755 50.0765 32.061C50.2571 32.2466 50.4671 32.3906 50.7064 32.4932C50.9505 32.5908 51.2093 32.6396 51.4827 32.6396C51.7562 32.6396 52.0125 32.5811 52.2518 32.4639C52.4959 32.3418 52.7083 32.1831 52.889 31.9878C53.0696 31.7876 53.2112 31.5605 53.3138 31.3066C53.4212 31.0479 53.4749 30.7817 53.4749 30.5083ZM55.4891 33.5112C55.4891 34.063 55.3841 34.5806 55.1741 35.064C54.9642 35.5474 54.6761 35.9697 54.3099 36.3311C53.9485 36.6924 53.5237 36.978 53.0355 37.188C52.5521 37.3979 52.0345 37.5029 51.4827 37.5029L50.4793 37.4883V35.4888L51.4681 35.5034C51.7806 35.5034 52.0467 35.4619 52.2664 35.3789C52.4861 35.3008 52.6717 35.1909 52.8231 35.0493C52.9744 34.9126 53.094 34.7539 53.1819 34.5732C53.2747 34.3926 53.348 34.2021 53.4017 34.002C53.3235 34.1289 53.2112 34.2339 53.0648 34.3169C52.9183 34.395 52.7547 34.4585 52.574 34.5073C52.3982 34.561 52.2127 34.5977 52.0174 34.6172C51.827 34.6367 51.6487 34.6465 51.4827 34.6465C50.931 34.6465 50.4109 34.5513 49.9227 34.3608C49.4393 34.1704 49.0145 33.8994 48.6482 33.5479C48.2869 33.1914 48.0013 32.7568 47.7913 32.2441C47.5814 31.7314 47.4764 31.1528 47.4764 30.5083C47.4764 29.9175 47.5814 29.3682 47.7913 28.8604C48.0013 28.3525 48.2869 27.9131 48.6482 27.542C49.0145 27.1709 49.4393 26.8804 49.9227 26.6704C50.4109 26.4604 50.931 26.3555 51.4827 26.3555C51.7366 26.3555 51.9881 26.3872 52.2371 26.4507C52.4861 26.5142 52.7278 26.6021 52.9622 26.7144C53.1966 26.8267 53.4188 26.9585 53.6287 27.1099C53.8436 27.2612 54.0438 27.4248 54.2293 27.6006L55.0057 26.6704H55.4891V33.5112ZM59.1693 34.5H57.1698V26.6558H57.6532L58.3124 27.4175C58.6347 27.1245 58.9984 26.8999 59.4037 26.7437C59.8139 26.5825 60.2411 26.502 60.6855 26.502C61.164 26.502 61.6156 26.5947 62.0404 26.7803C62.4652 26.9609 62.8363 27.2124 63.1537 27.5347C63.4711 27.8521 63.7201 28.2256 63.9008 28.6553C64.0863 29.0801 64.1791 29.5342 64.1791 30.0176V34.5H62.1796V30.0176C62.1796 29.8125 62.1405 29.6196 62.0624 29.439C61.9843 29.2534 61.8769 29.0923 61.7401 28.9556C61.6034 28.8188 61.4447 28.7114 61.2641 28.6333C61.0834 28.5552 60.8905 28.5161 60.6855 28.5161C60.4755 28.5161 60.2777 28.5552 60.0922 28.6333C59.9066 28.7114 59.7455 28.8188 59.6088 28.9556C59.4721 29.0923 59.3647 29.2534 59.2865 29.439C59.2084 29.6196 59.1693 29.8125 59.1693 30.0176V34.5ZM68.1157 24.5244C68.1157 24.71 68.0791 24.8833 68.0059 25.0444C67.9375 25.2056 67.8423 25.3472 67.7202 25.4692C67.5981 25.5864 67.4541 25.6816 67.2881 25.7549C67.127 25.8232 66.9536 25.8574 66.7681 25.8574C66.5825 25.8574 66.4067 25.8232 66.2407 25.7549C66.0796 25.6816 65.938 25.5864 65.8159 25.4692C65.6987 25.3472 65.6035 25.2056 65.5303 25.0444C65.4619 24.8833 65.4277 24.71 65.4277 24.5244C65.4277 24.3438 65.4619 24.1729 65.5303 24.0117C65.6035 23.8457 65.6987 23.7041 65.8159 23.5869C65.938 23.4648 66.0796 23.3696 66.2407 23.3013C66.4067 23.228 66.5825 23.1914 66.7681 23.1914C66.9536 23.1914 67.127 23.228 67.2881 23.3013C67.4541 23.3696 67.5981 23.4648 67.7202 23.5869C67.8423 23.7041 67.9375 23.8457 68.0059 24.0117C68.0791 24.1729 68.1157 24.3438 68.1157 24.5244ZM67.7715 34.5H65.7573V26.6558H67.7715V34.5ZM78.113 34.5H73.5427V32.5078H78.113C78.2497 32.5078 78.3669 32.459 78.4646 32.3613C78.5622 32.2637 78.611 32.1465 78.611 32.0098C78.611 31.8682 78.5622 31.7754 78.4646 31.7314C78.3669 31.6875 78.2497 31.6655 78.113 31.6655H76.0329C75.6862 31.6655 75.3615 31.5996 75.0588 31.4678C74.7561 31.3359 74.4924 31.1577 74.2678 30.9331C74.0432 30.7036 73.8649 30.4375 73.7331 30.1348C73.6062 29.832 73.5427 29.5073 73.5427 29.1606C73.5427 28.814 73.6062 28.4893 73.7331 28.1865C73.8649 27.8838 74.0432 27.6201 74.2678 27.3955C74.4924 27.1709 74.7561 26.9951 75.0588 26.8682C75.3615 26.7363 75.6862 26.6704 76.0329 26.6704H80.0832V28.6626H76.0329C75.8962 28.6626 75.779 28.7114 75.6814 28.8091C75.5837 28.9067 75.5349 29.0239 75.5349 29.1606C75.5349 29.3022 75.5837 29.4243 75.6814 29.5269C75.779 29.6245 75.8962 29.6733 76.0329 29.6733H78.113C78.4548 29.6733 78.7771 29.7319 79.0798 29.8491C79.3825 29.9614 79.6462 30.1201 79.8708 30.3252C80.0954 30.5303 80.2736 30.7769 80.4055 31.0649C80.5373 31.353 80.6032 31.668 80.6032 32.0098C80.6032 32.3564 80.5373 32.6812 80.4055 32.9839C80.2736 33.2817 80.0954 33.5454 79.8708 33.7749C79.6462 33.9995 79.3825 34.1777 79.0798 34.3096C78.7771 34.4365 78.4548 34.5 78.113 34.5ZM89.4031 30.5083C89.4031 31.0942 89.2981 31.6411 89.0882 32.1489C88.8782 32.6519 88.5926 33.0889 88.2313 33.46C87.8699 33.8262 87.4451 34.1167 86.9568 34.3315C86.4734 34.5415 85.9534 34.6465 85.3968 34.6465C84.845 34.6465 84.325 34.5415 83.8367 34.3315C83.3533 34.1167 82.9285 33.8262 82.5623 33.46C82.201 33.0889 81.9153 32.6519 81.7054 32.1489C81.4954 31.6411 81.3904 31.0942 81.3904 30.5083C81.3904 29.9126 81.4954 29.3608 81.7054 28.853C81.9153 28.3452 82.201 27.9082 82.5623 27.542C82.9285 27.1709 83.3533 26.8804 83.8367 26.6704C84.325 26.4604 84.845 26.3555 85.3968 26.3555C85.9534 26.3555 86.4734 26.4556 86.9568 26.6558C87.4451 26.8511 87.8699 27.1318 88.2313 27.498C88.5926 27.8594 88.8782 28.2964 89.0882 28.8091C89.2981 29.3169 89.4031 29.8833 89.4031 30.5083ZM87.389 30.5083C87.389 30.186 87.3353 29.8955 87.2278 29.6367C87.1253 29.373 86.9837 29.1484 86.803 28.9629C86.6224 28.7725 86.41 28.6284 86.1658 28.5308C85.9266 28.4282 85.6702 28.377 85.3968 28.377C85.1233 28.377 84.8646 28.4282 84.6204 28.5308C84.3812 28.6284 84.1712 28.7725 83.9905 28.9629C83.8148 29.1484 83.6756 29.373 83.5731 29.6367C83.4705 29.8955 83.4192 30.186 83.4192 30.5083C83.4192 30.811 83.4705 31.0918 83.5731 31.3506C83.6756 31.6094 83.8148 31.834 83.9905 32.0244C84.1712 32.2148 84.3812 32.3662 84.6204 32.4785C84.8646 32.5859 85.1233 32.6396 85.3968 32.6396C85.6702 32.6396 85.9266 32.5884 86.1658 32.4858C86.41 32.3833 86.6224 32.2393 86.803 32.0537C86.9837 31.8682 87.1253 31.6436 87.2278 31.3799C87.3353 31.1162 87.389 30.8257 87.389 30.5083ZM92.6586 34.5H90.6591V26.6558H91.1425L91.8017 27.5859C92.1239 27.293 92.4901 27.0684 92.9003 26.9121C93.3105 26.751 93.7353 26.6704 94.1747 26.6704H95.9398V28.6626H94.1747C93.9648 28.6626 93.767 28.7017 93.5815 28.7798C93.3959 28.8579 93.2348 28.9653 93.0981 29.1021C92.9613 29.2388 92.8539 29.3999 92.7758 29.5854C92.6977 29.771 92.6586 29.9688 92.6586 30.1787V34.5ZM101.239 34.5H96.6685V32.5078H101.239C101.375 32.5078 101.493 32.459 101.59 32.3613C101.688 32.2637 101.737 32.1465 101.737 32.0098C101.737 31.8682 101.688 31.7754 101.59 31.7314C101.493 31.6875 101.375 31.6655 101.239 31.6655H99.1587C98.812 31.6655 98.4873 31.5996 98.1846 31.4678C97.8818 31.3359 97.6182 31.1577 97.3936 30.9331C97.1689 30.7036 96.9907 30.4375 96.8589 30.1348C96.7319 29.832 96.6685 29.5073 96.6685 29.1606C96.6685 28.814 96.7319 28.4893 96.8589 28.1865C96.9907 27.8838 97.1689 27.6201 97.3936 27.3955C97.6182 27.1709 97.8818 26.9951 98.1846 26.8682C98.4873 26.7363 98.812 26.6704 99.1587 26.6704H103.209V28.6626H99.1587C99.022 28.6626 98.9048 28.7114 98.8071 28.8091C98.7095 28.9067 98.6606 29.0239 98.6606 29.1606C98.6606 29.3022 98.7095 29.4243 98.8071 29.5269C98.9048 29.6245 99.022 29.6733 99.1587 29.6733H101.239C101.581 29.6733 101.903 29.7319 102.206 29.8491C102.508 29.9614 102.772 30.1201 102.997 30.3252C103.221 30.5303 103.399 30.7769 103.531 31.0649C103.663 31.353 103.729 31.668 103.729 32.0098C103.729 32.3564 103.663 32.6812 103.531 32.9839C103.399 33.2817 103.221 33.5454 102.997 33.7749C102.772 33.9995 102.508 34.1777 102.206 34.3096C101.903 34.4365 101.581 34.5 101.239 34.5ZM112.529 30.5083C112.529 31.0942 112.424 31.6411 112.214 32.1489C112.004 32.6519 111.718 33.0889 111.357 33.46C110.996 33.8262 110.571 34.1167 110.083 34.3315C109.599 34.5415 109.079 34.6465 108.523 34.6465C107.971 34.6465 107.451 34.5415 106.963 34.3315C106.479 34.1167 106.054 33.8262 105.688 33.46C105.327 33.0889 105.041 32.6519 104.831 32.1489C104.621 31.6411 104.516 31.0942 104.516 30.5083C104.516 29.9126 104.621 29.3608 104.831 28.853C105.041 28.3452 105.327 27.9082 105.688 27.542C106.054 27.1709 106.479 26.8804 106.963 26.6704C107.451 26.4604 107.971 26.3555 108.523 26.3555C109.079 26.3555 109.599 26.4556 110.083 26.6558C110.571 26.8511 110.996 27.1318 111.357 27.498C111.718 27.8594 112.004 28.2964 112.214 28.8091C112.424 29.3169 112.529 29.8833 112.529 30.5083ZM110.515 30.5083C110.515 30.186 110.461 29.8955 110.354 29.6367C110.251 29.373 110.109 29.1484 109.929 28.9629C109.748 28.7725 109.536 28.6284 109.292 28.5308C109.052 28.4282 108.796 28.377 108.523 28.377C108.249 28.377 107.99 28.4282 107.746 28.5308C107.507 28.6284 107.297 28.7725 107.116 28.9629C106.941 29.1484 106.801 29.373 106.699 29.6367C106.596 29.8955 106.545 30.186 106.545 30.5083C106.545 30.811 106.596 31.0918 106.699 31.3506C106.801 31.6094 106.941 31.834 107.116 32.0244C107.297 32.2148 107.507 32.3662 107.746 32.4785C107.99 32.5859 108.249 32.6396 108.523 32.6396C108.796 32.6396 109.052 32.5884 109.292 32.4858C109.536 32.3833 109.748 32.2393 109.929 32.0537C110.109 31.8682 110.251 31.6436 110.354 31.3799C110.461 31.1162 110.515 30.8257 110.515 30.5083ZM121.259 32.5811C121.337 32.6055 121.415 32.6226 121.493 32.6323C121.572 32.6372 121.65 32.6396 121.728 32.6396C121.923 32.6396 122.111 32.6128 122.292 32.5591C122.472 32.5054 122.641 32.4297 122.797 32.332C122.958 32.2295 123.1 32.1074 123.222 31.9658C123.349 31.8193 123.451 31.6582 123.53 31.4824L124.994 32.9546C124.809 33.2183 124.594 33.4551 124.35 33.665C124.111 33.875 123.849 34.0532 123.566 34.1997C123.288 34.3462 122.992 34.4561 122.68 34.5293C122.372 34.6074 122.055 34.6465 121.728 34.6465C121.176 34.6465 120.656 34.5439 120.168 34.3389C119.684 34.1338 119.26 33.8481 118.893 33.4819C118.532 33.1157 118.246 32.6812 118.036 32.1782C117.826 31.6704 117.721 31.1138 117.721 30.5083C117.721 29.8882 117.826 29.3218 118.036 28.8091C118.246 28.2964 118.532 27.8594 118.893 27.498C119.26 27.1367 119.684 26.856 120.168 26.6558C120.656 26.4556 121.176 26.3555 121.728 26.3555C122.055 26.3555 122.375 26.3945 122.687 26.4727C123 26.5508 123.295 26.6631 123.574 26.8096C123.857 26.9561 124.12 27.1367 124.365 27.3516C124.609 27.5615 124.824 27.7983 125.009 28.062L121.259 32.5811ZM122.284 28.4575C122.192 28.4233 122.099 28.4014 122.006 28.3916C121.918 28.3818 121.825 28.377 121.728 28.377C121.454 28.377 121.196 28.4282 120.951 28.5308C120.712 28.6284 120.502 28.77 120.322 28.9556C120.146 29.1411 120.007 29.3657 119.904 29.6294C119.802 29.8882 119.75 30.1812 119.75 30.5083C119.75 30.5815 119.753 30.6646 119.758 30.7573C119.767 30.8501 119.78 30.9453 119.794 31.043C119.814 31.1357 119.836 31.2261 119.86 31.314C119.885 31.4019 119.916 31.48 119.955 31.5483L122.284 28.4575ZM121.559 25.7695L118.996 24.1802L120.212 22.6494L122.372 24.6782L121.559 25.7695ZM136.288 33.5845C136.127 33.731 135.954 33.8701 135.768 34.002C135.587 34.1289 135.397 34.2412 135.197 34.3389C134.997 34.4316 134.789 34.5049 134.574 34.5586C134.364 34.6172 134.149 34.6465 133.93 34.6465C133.446 34.6465 132.992 34.561 132.567 34.3901C132.143 34.2192 131.769 33.9775 131.447 33.665C131.129 33.3477 130.878 32.9644 130.692 32.5151C130.512 32.061 130.421 31.5532 130.421 30.9917V26.6558H132.414V30.9917C132.414 31.2554 132.453 31.4922 132.531 31.7021C132.614 31.9072 132.724 32.0806 132.86 32.2222C132.997 32.3638 133.156 32.4712 133.336 32.5444C133.522 32.6177 133.72 32.6543 133.93 32.6543C134.135 32.6543 134.328 32.6079 134.508 32.5151C134.694 32.4175 134.855 32.2905 134.992 32.1343C135.128 31.978 135.236 31.8022 135.314 31.6069C135.392 31.4067 135.431 31.2017 135.431 30.9917V26.6558H137.431V34.5H136.947L136.288 33.5845ZM141.111 34.5H139.111V26.6558H139.595L140.254 27.4175C140.576 27.1245 140.94 26.8999 141.345 26.7437C141.755 26.5825 142.183 26.502 142.627 26.502C143.106 26.502 143.557 26.5947 143.982 26.7803C144.407 26.9609 144.778 27.2124 145.095 27.5347C145.413 27.8521 145.662 28.2256 145.842 28.6553C146.028 29.0801 146.121 29.5342 146.121 30.0176V34.5H144.121V30.0176C144.121 29.8125 144.082 29.6196 144.004 29.439C143.926 29.2534 143.818 29.0923 143.682 28.9556C143.545 28.8188 143.386 28.7114 143.206 28.6333C143.025 28.5552 142.832 28.5161 142.627 28.5161C142.417 28.5161 142.219 28.5552 142.034 28.6333C141.848 28.7114 141.687 28.8188 141.55 28.9556C141.414 29.0923 141.306 29.2534 141.228 29.439C141.15 29.6196 141.111 29.8125 141.111 30.0176V34.5ZM162.029 34.5H160.036V29.5195C160.036 29.3828 160.01 29.2534 159.956 29.1313C159.907 29.0093 159.836 28.9019 159.743 28.8091C159.651 28.7163 159.543 28.6455 159.421 28.5967C159.299 28.543 159.17 28.5161 159.033 28.5161C158.896 28.5161 158.767 28.543 158.645 28.5967C158.528 28.6455 158.423 28.7163 158.33 28.8091C158.242 28.9019 158.171 29.0093 158.117 29.1313C158.069 29.2534 158.044 29.3828 158.044 29.5195V34.5H156.045V29.5195C156.045 29.3828 156.018 29.2534 155.964 29.1313C155.915 29.0093 155.845 28.9019 155.752 28.8091C155.659 28.7163 155.552 28.6455 155.429 28.5967C155.307 28.543 155.178 28.5161 155.041 28.5161C154.905 28.5161 154.775 28.543 154.653 28.5967C154.536 28.6455 154.431 28.7163 154.338 28.8091C154.25 28.9019 154.179 29.0093 154.126 29.1313C154.077 29.2534 154.053 29.3828 154.053 29.5195V34.5H152.053V26.6558H152.536L153.078 27.2563C153.357 27.022 153.662 26.8413 153.994 26.7144C154.331 26.5825 154.68 26.5166 155.041 26.5166C155.408 26.5166 155.764 26.585 156.111 26.7217C156.462 26.8584 156.77 27.0952 157.033 27.4321C157.156 27.2661 157.295 27.1245 157.451 27.0073C157.607 26.8901 157.771 26.7949 157.942 26.7217C158.117 26.6484 158.298 26.5972 158.484 26.5679C158.669 26.5337 158.852 26.5166 159.033 26.5166C159.448 26.5166 159.836 26.5947 160.198 26.751C160.564 26.9072 160.881 27.1221 161.15 27.3955C161.423 27.6641 161.638 27.9814 161.794 28.3477C161.95 28.7139 162.029 29.1045 162.029 29.5195V34.5ZM171.224 30.5083C171.224 31.0942 171.119 31.6411 170.909 32.1489C170.699 32.6519 170.413 33.0889 170.052 33.46C169.691 33.8262 169.266 34.1167 168.778 34.3315C168.294 34.5415 167.774 34.6465 167.218 34.6465C166.666 34.6465 166.146 34.5415 165.658 34.3315C165.174 34.1167 164.749 33.8262 164.383 33.46C164.022 33.0889 163.736 32.6519 163.526 32.1489C163.316 31.6411 163.211 31.0942 163.211 30.5083C163.211 29.9126 163.316 29.3608 163.526 28.853C163.736 28.3452 164.022 27.9082 164.383 27.542C164.749 27.1709 165.174 26.8804 165.658 26.6704C166.146 26.4604 166.666 26.3555 167.218 26.3555C167.774 26.3555 168.294 26.4556 168.778 26.6558C169.266 26.8511 169.691 27.1318 170.052 27.498C170.413 27.8594 170.699 28.2964 170.909 28.8091C171.119 29.3169 171.224 29.8833 171.224 30.5083ZM169.21 30.5083C169.21 30.186 169.156 29.8955 169.049 29.6367C168.946 29.373 168.805 29.1484 168.624 28.9629C168.443 28.7725 168.231 28.6284 167.987 28.5308C167.747 28.4282 167.491 28.377 167.218 28.377C166.944 28.377 166.685 28.4282 166.441 28.5308C166.202 28.6284 165.992 28.7725 165.811 28.9629C165.636 29.1484 165.496 29.373 165.394 29.6367C165.291 29.8955 165.24 30.186 165.24 30.5083C165.24 30.811 165.291 31.0918 165.394 31.3506C165.496 31.6094 165.636 31.834 165.811 32.0244C165.992 32.2148 166.202 32.3662 166.441 32.4785C166.685 32.5859 166.944 32.6396 167.218 32.6396C167.491 32.6396 167.747 32.5884 167.987 32.4858C168.231 32.3833 168.443 32.2393 168.624 32.0537C168.805 31.8682 168.946 31.6436 169.049 31.3799C169.156 31.1162 169.21 30.8257 169.21 30.5083ZM182.456 34.5H180.463V29.5195C180.463 29.3828 180.437 29.2534 180.383 29.1313C180.334 29.0093 180.263 28.9019 180.17 28.8091C180.078 28.7163 179.97 28.6455 179.848 28.5967C179.726 28.543 179.597 28.5161 179.46 28.5161C179.323 28.5161 179.194 28.543 179.072 28.5967C178.955 28.6455 178.85 28.7163 178.757 28.8091C178.669 28.9019 178.598 29.0093 178.544 29.1313C178.496 29.2534 178.471 29.3828 178.471 29.5195V34.5H176.472V29.5195C176.472 29.3828 176.445 29.2534 176.391 29.1313C176.342 29.0093 176.271 28.9019 176.179 28.8091C176.086 28.7163 175.979 28.6455 175.856 28.5967C175.734 28.543 175.605 28.5161 175.468 28.5161C175.332 28.5161 175.202 28.543 175.08 28.5967C174.963 28.6455 174.858 28.7163 174.765 28.8091C174.677 28.9019 174.606 29.0093 174.553 29.1313C174.504 29.2534 174.479 29.3828 174.479 29.5195V34.5H172.48V26.6558H172.963L173.505 27.2563C173.784 27.022 174.089 26.8413 174.421 26.7144C174.758 26.5825 175.107 26.5166 175.468 26.5166C175.834 26.5166 176.191 26.585 176.538 26.7217C176.889 26.8584 177.197 27.0952 177.46 27.4321C177.583 27.2661 177.722 27.1245 177.878 27.0073C178.034 26.8901 178.198 26.7949 178.369 26.7217C178.544 26.6484 178.725 26.5972 178.911 26.5679C179.096 26.5337 179.279 26.5166 179.46 26.5166C179.875 26.5166 180.263 26.5947 180.625 26.751C180.991 26.9072 181.308 27.1221 181.577 27.3955C181.85 27.6641 182.065 27.9814 182.221 28.3477C182.377 28.7139 182.456 29.1045 182.456 29.5195V34.5ZM187.191 32.5811C187.269 32.6055 187.347 32.6226 187.425 32.6323C187.503 32.6372 187.581 32.6396 187.659 32.6396C187.855 32.6396 188.043 32.6128 188.223 32.5591C188.404 32.5054 188.572 32.4297 188.729 32.332C188.89 32.2295 189.031 32.1074 189.153 31.9658C189.28 31.8193 189.383 31.6582 189.461 31.4824L190.926 32.9546C190.74 33.2183 190.525 33.4551 190.281 33.665C190.042 33.875 189.781 34.0532 189.498 34.1997C189.219 34.3462 188.924 34.4561 188.611 34.5293C188.304 34.6074 187.986 34.6465 187.659 34.6465C187.108 34.6465 186.588 34.5439 186.099 34.3389C185.616 34.1338 185.191 33.8481 184.825 33.4819C184.463 33.1157 184.178 32.6812 183.968 32.1782C183.758 31.6704 183.653 31.1138 183.653 30.5083C183.653 29.8882 183.758 29.3218 183.968 28.8091C184.178 28.2964 184.463 27.8594 184.825 27.498C185.191 27.1367 185.616 26.856 186.099 26.6558C186.588 26.4556 187.108 26.3555 187.659 26.3555C187.986 26.3555 188.306 26.3945 188.619 26.4727C188.931 26.5508 189.227 26.6631 189.505 26.8096C189.788 26.9561 190.052 27.1367 190.296 27.3516C190.54 27.5615 190.755 27.7983 190.941 28.062L187.191 32.5811ZM188.216 28.4575C188.123 28.4233 188.03 28.4014 187.938 28.3916C187.85 28.3818 187.757 28.377 187.659 28.377C187.386 28.377 187.127 28.4282 186.883 28.5308C186.644 28.6284 186.434 28.77 186.253 28.9556C186.077 29.1411 185.938 29.3657 185.836 29.6294C185.733 29.8882 185.682 30.1812 185.682 30.5083C185.682 30.5815 185.684 30.6646 185.689 30.7573C185.699 30.8501 185.711 30.9453 185.726 31.043C185.745 31.1357 185.767 31.2261 185.792 31.314C185.816 31.4019 185.848 31.48 185.887 31.5483L188.216 28.4575ZM194.101 34.5H192.101V26.6558H192.585L193.244 27.4175C193.566 27.1245 193.93 26.8999 194.335 26.7437C194.745 26.5825 195.173 26.502 195.617 26.502C196.095 26.502 196.547 26.5947 196.972 26.7803C197.397 26.9609 197.768 27.2124 198.085 27.5347C198.403 27.8521 198.652 28.2256 198.832 28.6553C199.018 29.0801 199.111 29.5342 199.111 30.0176V34.5H197.111V30.0176C197.111 29.8125 197.072 29.6196 196.994 29.439C196.916 29.2534 196.808 29.0923 196.672 28.9556C196.535 28.8188 196.376 28.7114 196.196 28.6333C196.015 28.5552 195.822 28.5161 195.617 28.5161C195.407 28.5161 195.209 28.5552 195.024 28.6333C194.838 28.7114 194.677 28.8188 194.54 28.9556C194.404 29.0923 194.296 29.2534 194.218 29.439C194.14 29.6196 194.101 29.8125 194.101 30.0176V34.5ZM204.519 34.5C204.036 34.5 203.582 34.4097 203.157 34.229C202.732 34.0435 202.359 33.792 202.036 33.4746C201.719 33.1523 201.468 32.7788 201.282 32.354C201.101 31.9292 201.011 31.4751 201.011 30.9917V28.6626H200.037V26.6704H201.011V23.5356H203.003V26.6704H206.035V28.6626H203.003V30.9917C203.003 31.2017 203.042 31.3994 203.12 31.585C203.199 31.7656 203.306 31.9243 203.443 32.061C203.579 32.1978 203.741 32.3076 203.926 32.3906C204.112 32.4688 204.309 32.5078 204.519 32.5078H206.035V34.5H204.519ZM214.894 30.5083C214.894 31.0942 214.789 31.6411 214.579 32.1489C214.369 32.6519 214.083 33.0889 213.722 33.46C213.361 33.8262 212.936 34.1167 212.448 34.3315C211.964 34.5415 211.444 34.6465 210.888 34.6465C210.336 34.6465 209.816 34.5415 209.328 34.3315C208.844 34.1167 208.419 33.8262 208.053 33.46C207.692 33.0889 207.406 32.6519 207.196 32.1489C206.986 31.6411 206.881 31.0942 206.881 30.5083C206.881 29.9126 206.986 29.3608 207.196 28.853C207.406 28.3452 207.692 27.9082 208.053 27.542C208.419 27.1709 208.844 26.8804 209.328 26.6704C209.816 26.4604 210.336 26.3555 210.888 26.3555C211.444 26.3555 211.964 26.4556 212.448 26.6558C212.936 26.8511 213.361 27.1318 213.722 27.498C214.083 27.8594 214.369 28.2964 214.579 28.8091C214.789 29.3169 214.894 29.8833 214.894 30.5083ZM212.88 30.5083C212.88 30.186 212.826 29.8955 212.719 29.6367C212.616 29.373 212.475 29.1484 212.294 28.9629C212.113 28.7725 211.901 28.6284 211.657 28.5308C211.417 28.4282 211.161 28.377 210.888 28.377C210.614 28.377 210.355 28.4282 210.111 28.5308C209.872 28.6284 209.662 28.7725 209.481 28.9629C209.306 29.1484 209.166 29.373 209.064 29.6367C208.961 29.8955 208.91 30.186 208.91 30.5083C208.91 30.811 208.961 31.0918 209.064 31.3506C209.166 31.6094 209.306 31.834 209.481 32.0244C209.662 32.2148 209.872 32.3662 210.111 32.4785C210.355 32.5859 210.614 32.6396 210.888 32.6396C211.161 32.6396 211.417 32.5884 211.657 32.4858C211.901 32.3833 212.113 32.2393 212.294 32.0537C212.475 31.8682 212.616 31.6436 212.719 31.3799C212.826 31.1162 212.88 30.8257 212.88 30.5083ZM224.811 34.5H220.24V32.5078H224.811C224.947 32.5078 225.065 32.459 225.162 32.3613C225.26 32.2637 225.309 32.1465 225.309 32.0098C225.309 31.8682 225.26 31.7754 225.162 31.7314C225.065 31.6875 224.947 31.6655 224.811 31.6655H222.731C222.384 31.6655 222.059 31.5996 221.756 31.4678C221.454 31.3359 221.19 31.1577 220.965 30.9331C220.741 30.7036 220.563 30.4375 220.431 30.1348C220.304 29.832 220.24 29.5073 220.24 29.1606C220.24 28.814 220.304 28.4893 220.431 28.1865C220.563 27.8838 220.741 27.6201 220.965 27.3955C221.19 27.1709 221.454 26.9951 221.756 26.8682C222.059 26.7363 222.384 26.6704 222.731 26.6704H226.781V28.6626H222.731C222.594 28.6626 222.477 28.7114 222.379 28.8091C222.281 28.9067 222.233 29.0239 222.233 29.1606C222.233 29.3022 222.281 29.4243 222.379 29.5269C222.477 29.6245 222.594 29.6733 222.731 29.6733H224.811C225.152 29.6733 225.475 29.7319 225.777 29.8491C226.08 29.9614 226.344 30.1201 226.568 30.3252C226.793 30.5303 226.971 30.7769 227.103 31.0649C227.235 31.353 227.301 31.668 227.301 32.0098C227.301 32.3564 227.235 32.6812 227.103 32.9839C226.971 33.2817 226.793 33.5454 226.568 33.7749C226.344 33.9995 226.08 34.1777 225.777 34.3096C225.475 34.4365 225.152 34.5 224.811 34.5ZM230.534 37.4883H228.52V26.6558H229.004L229.802 27.6006C229.983 27.4297 230.18 27.2686 230.395 27.1172C230.61 26.9658 230.832 26.8364 231.062 26.729C231.296 26.6167 231.538 26.5288 231.787 26.4653C232.036 26.4019 232.287 26.3701 232.541 26.3701C233.093 26.3701 233.611 26.4702 234.094 26.6704C234.582 26.8657 235.007 27.144 235.368 27.5054C235.735 27.8667 236.023 28.3037 236.233 28.8164C236.443 29.3242 236.548 29.8882 236.548 30.5083C236.548 31.1528 236.443 31.7339 236.233 32.2515C236.023 32.7642 235.735 33.2012 235.368 33.5625C235.007 33.9189 234.582 34.1924 234.094 34.3828C233.611 34.5732 233.093 34.6685 232.541 34.6685C232.365 34.6685 232.19 34.6489 232.014 34.6099C231.843 34.5708 231.672 34.5195 231.501 34.4561C231.335 34.3877 231.169 34.312 231.003 34.229C230.842 34.146 230.686 34.0605 230.534 33.9727V37.4883ZM234.541 30.5083C234.541 30.1763 234.487 29.8784 234.38 29.6147C234.277 29.3511 234.135 29.1289 233.955 28.9482C233.774 28.7627 233.562 28.6211 233.318 28.5234C233.073 28.4258 232.815 28.377 232.541 28.377C232.268 28.377 232.009 28.4258 231.765 28.5234C231.526 28.6211 231.316 28.7627 231.135 28.9482C230.954 29.1289 230.81 29.3511 230.703 29.6147C230.6 29.8784 230.549 30.1763 230.549 30.5083C230.549 30.8257 230.6 31.1162 230.703 31.3799C230.81 31.6436 230.954 31.8682 231.135 32.0537C231.316 32.2393 231.526 32.3833 231.765 32.4858C232.009 32.5884 232.268 32.6396 232.541 32.6396C232.815 32.6396 233.073 32.5884 233.318 32.4858C233.562 32.3833 233.774 32.2393 233.955 32.0537C234.135 31.8682 234.277 31.6436 234.38 31.3799C234.487 31.1162 234.541 30.8257 234.541 30.5083ZM240.931 32.5811C241.009 32.6055 241.087 32.6226 241.165 32.6323C241.243 32.6372 241.322 32.6396 241.4 32.6396C241.595 32.6396 241.783 32.6128 241.964 32.5591C242.144 32.5054 242.313 32.4297 242.469 32.332C242.63 32.2295 242.772 32.1074 242.894 31.9658C243.021 31.8193 243.123 31.6582 243.201 31.4824L244.666 32.9546C244.481 33.2183 244.266 33.4551 244.022 33.665C243.783 33.875 243.521 34.0532 243.238 34.1997C242.96 34.3462 242.664 34.4561 242.352 34.5293C242.044 34.6074 241.727 34.6465 241.4 34.6465C240.848 34.6465 240.328 34.5439 239.84 34.3389C239.356 34.1338 238.931 33.8481 238.565 33.4819C238.204 33.1157 237.918 32.6812 237.708 32.1782C237.498 31.6704 237.393 31.1138 237.393 30.5083C237.393 29.8882 237.498 29.3218 237.708 28.8091C237.918 28.2964 238.204 27.8594 238.565 27.498C238.931 27.1367 239.356 26.856 239.84 26.6558C240.328 26.4556 240.848 26.3555 241.4 26.3555C241.727 26.3555 242.047 26.3945 242.359 26.4727C242.672 26.5508 242.967 26.6631 243.245 26.8096C243.529 26.9561 243.792 27.1367 244.036 27.3516C244.281 27.5615 244.495 27.7983 244.681 28.062L240.931 32.5811ZM241.956 28.4575C241.864 28.4233 241.771 28.4014 241.678 28.3916C241.59 28.3818 241.497 28.377 241.4 28.377C241.126 28.377 240.867 28.4282 240.623 28.5308C240.384 28.6284 240.174 28.77 239.993 28.9556C239.818 29.1411 239.679 29.3657 239.576 29.6294C239.473 29.8882 239.422 30.1812 239.422 30.5083C239.422 30.5815 239.425 30.6646 239.429 30.7573C239.439 30.8501 239.451 30.9453 239.466 31.043C239.486 31.1357 239.508 31.2261 239.532 31.314C239.556 31.4019 239.588 31.48 239.627 31.5483L241.956 28.4575ZM252.639 28.2158L251.174 29.688C251.1 29.4829 251 29.2998 250.873 29.1387C250.746 28.9727 250.602 28.8335 250.441 28.7212C250.285 28.6089 250.114 28.5234 249.929 28.4648C249.743 28.4062 249.553 28.377 249.357 28.377C249.084 28.377 248.825 28.4331 248.581 28.5454C248.342 28.6577 248.132 28.8164 247.951 29.0215C247.775 29.2217 247.636 29.4609 247.534 29.7393C247.431 30.0176 247.38 30.3252 247.38 30.6621C247.38 30.9355 247.431 31.1919 247.534 31.4312C247.636 31.6704 247.775 31.8804 247.951 32.061C248.132 32.2417 248.342 32.3833 248.581 32.4858C248.825 32.5884 249.084 32.6396 249.357 32.6396C249.553 32.6396 249.741 32.6128 249.921 32.5591C250.102 32.5054 250.27 32.4297 250.427 32.332C250.588 32.2295 250.729 32.1074 250.851 31.9658C250.978 31.8193 251.081 31.6582 251.159 31.4824L252.624 32.9546C252.438 33.2183 252.224 33.4551 251.979 33.665C251.74 33.875 251.479 34.0532 251.196 34.1997C250.917 34.3462 250.622 34.4561 250.309 34.5293C250.002 34.6074 249.684 34.6465 249.357 34.6465C248.806 34.6465 248.286 34.5439 247.797 34.3389C247.314 34.1289 246.889 33.8433 246.523 33.4819C246.162 33.1206 245.876 32.6982 245.666 32.2148C245.456 31.7314 245.351 31.2139 245.351 30.6621C245.351 30.0615 245.456 29.5 245.666 28.9775C245.876 28.4551 246.162 28.001 246.523 27.6152C246.889 27.2246 247.314 26.917 247.797 26.6924C248.286 26.4678 248.806 26.3555 249.357 26.3555C249.684 26.3555 250.004 26.397 250.317 26.48C250.634 26.563 250.934 26.6851 251.218 26.8462C251.506 27.0024 251.769 27.1953 252.009 27.4248C252.253 27.6543 252.463 27.918 252.639 28.2158ZM256.128 24.5244C256.128 24.71 256.092 24.8833 256.019 25.0444C255.95 25.2056 255.855 25.3472 255.733 25.4692C255.611 25.5864 255.467 25.6816 255.301 25.7549C255.14 25.8232 254.966 25.8574 254.781 25.8574C254.595 25.8574 254.419 25.8232 254.253 25.7549C254.092 25.6816 253.951 25.5864 253.829 25.4692C253.711 25.3472 253.616 25.2056 253.543 25.0444C253.475 24.8833 253.44 24.71 253.44 24.5244C253.44 24.3438 253.475 24.1729 253.543 24.0117C253.616 23.8457 253.711 23.7041 253.829 23.5869C253.951 23.4648 254.092 23.3696 254.253 23.3013C254.419 23.228 254.595 23.1914 254.781 23.1914C254.966 23.1914 255.14 23.228 255.301 23.3013C255.467 23.3696 255.611 23.4648 255.733 23.5869C255.855 23.7041 255.95 23.8457 256.019 24.0117C256.092 24.1729 256.128 24.3438 256.128 24.5244ZM255.784 34.5H253.77V26.6558H255.784V34.5ZM265.06 34.5H264.577L263.8 33.4233C263.61 33.5942 263.407 33.7554 263.193 33.9067C262.983 34.0532 262.76 34.1826 262.526 34.2949C262.292 34.4023 262.05 34.4878 261.801 34.5513C261.557 34.6147 261.308 34.6465 261.054 34.6465C260.502 34.6465 259.982 34.5537 259.494 34.3682C259.01 34.1826 258.586 33.9141 258.219 33.5625C257.858 33.2061 257.572 32.7715 257.362 32.2588C257.152 31.7461 257.047 31.1626 257.047 30.5083C257.047 29.8979 257.152 29.3389 257.362 28.8311C257.572 28.3184 257.858 27.8789 258.219 27.5127C258.586 27.1465 259.01 26.8633 259.494 26.6631C259.982 26.458 260.502 26.3555 261.054 26.3555C261.308 26.3555 261.559 26.3872 261.808 26.4507C262.057 26.5142 262.299 26.6021 262.533 26.7144C262.768 26.8267 262.99 26.9585 263.2 27.1099C263.415 27.2612 263.615 27.4248 263.8 27.6006L264.577 26.6704H265.06V34.5ZM263.046 30.5083C263.046 30.2349 262.992 29.9712 262.885 29.7173C262.782 29.4585 262.641 29.2314 262.46 29.0361C262.279 28.8359 262.067 28.6772 261.823 28.5601C261.584 28.438 261.327 28.377 261.054 28.377C260.78 28.377 260.522 28.4233 260.277 28.5161C260.038 28.6089 259.828 28.7456 259.648 28.9263C259.472 29.1069 259.333 29.3315 259.23 29.6001C259.128 29.8638 259.076 30.1665 259.076 30.5083C259.076 30.8501 259.128 31.1553 259.23 31.4238C259.333 31.6875 259.472 31.9097 259.648 32.0903C259.828 32.271 260.038 32.4077 260.277 32.5005C260.522 32.5933 260.78 32.6396 261.054 32.6396C261.327 32.6396 261.584 32.5811 261.823 32.4639C262.067 32.3418 262.279 32.1831 262.46 31.9878C262.641 31.7876 262.782 31.5605 262.885 31.3066C262.992 31.0479 263.046 30.7817 263.046 30.5083ZM268.755 34.5H266.741V23.5356H268.755V34.5ZM273.556 32.5811C273.634 32.6055 273.712 32.6226 273.79 32.6323C273.868 32.6372 273.947 32.6396 274.025 32.6396C274.22 32.6396 274.408 32.6128 274.589 32.5591C274.769 32.5054 274.938 32.4297 275.094 32.332C275.255 32.2295 275.397 32.1074 275.519 31.9658C275.646 31.8193 275.748 31.6582 275.826 31.4824L277.291 32.9546C277.106 33.2183 276.891 33.4551 276.647 33.665C276.408 33.875 276.146 34.0532 275.863 34.1997C275.585 34.3462 275.289 34.4561 274.977 34.5293C274.669 34.6074 274.352 34.6465 274.025 34.6465C273.473 34.6465 272.953 34.5439 272.465 34.3389C271.981 34.1338 271.556 33.8481 271.19 33.4819C270.829 33.1157 270.543 32.6812 270.333 32.1782C270.123 31.6704 270.018 31.1138 270.018 30.5083C270.018 29.8882 270.123 29.3218 270.333 28.8091C270.543 28.2964 270.829 27.8594 271.19 27.498C271.556 27.1367 271.981 26.856 272.465 26.6558C272.953 26.4556 273.473 26.3555 274.025 26.3555C274.352 26.3555 274.672 26.3945 274.984 26.4727C275.297 26.5508 275.592 26.6631 275.87 26.8096C276.154 26.9561 276.417 27.1367 276.661 27.3516C276.906 27.5615 277.12 27.7983 277.306 28.062L273.556 32.5811ZM274.581 28.4575C274.489 28.4233 274.396 28.4014 274.303 28.3916C274.215 28.3818 274.122 28.377 274.025 28.377C273.751 28.377 273.492 28.4282 273.248 28.5308C273.009 28.6284 272.799 28.77 272.618 28.9556C272.443 29.1411 272.304 29.3657 272.201 29.6294C272.098 29.8882 272.047 30.1812 272.047 30.5083C272.047 30.5815 272.05 30.6646 272.055 30.7573C272.064 30.8501 272.076 30.9453 272.091 31.043C272.111 31.1357 272.133 31.2261 272.157 31.314C272.181 31.4019 272.213 31.48 272.252 31.5483L274.581 28.4575Z" fill="white"/>
</svg>
