<svg width="113" height="47" viewBox="0 0 113 47" fill="none" xmlns="http://www.w3.org/2000/svg">
<g filter="url(#filter0_d_10_6)">
<rect x="6" y="2" width="101" height="38" rx="12" fill="#1E1E1E" shape-rendering="crispEdges"/>
<rect x="5.5" y="1.5" width="102" height="39" rx="12.5" stroke="white" stroke-opacity="0.29" shape-rendering="crispEdges"/>
</g>
<path d="M14.4376 15.3359V26H12.6139V15.3359H14.4376ZM17.7848 15.3359V16.8008H9.296V15.3359H17.7848ZM22.6016 24.4106V20.6313C22.6016 20.3481 22.5503 20.104 22.4478 19.8989C22.3452 19.6938 22.189 19.5352 21.979 19.4229C21.7739 19.3105 21.5151 19.2544 21.2026 19.2544C20.9146 19.2544 20.6655 19.3032 20.4556 19.4009C20.2456 19.4985 20.082 19.6304 19.9648 19.7964C19.8477 19.9624 19.7891 20.1504 19.7891 20.3604H18.0313C18.0313 20.0479 18.1069 19.7451 18.2583 19.4521C18.4097 19.1592 18.6294 18.8979 18.9175 18.6685C19.2056 18.439 19.5498 18.2583 19.9502 18.1265C20.3506 17.9946 20.7998 17.9287 21.2979 17.9287C21.8936 17.9287 22.4209 18.0288 22.8799 18.229C23.3438 18.4292 23.7075 18.7319 23.9712 19.1372C24.2397 19.5376 24.374 20.0405 24.374 20.646V24.1689C24.374 24.5303 24.3984 24.855 24.4473 25.1431C24.501 25.4263 24.5767 25.6729 24.6743 25.8828V26H22.8652C22.7822 25.8096 22.7163 25.5679 22.6675 25.2749C22.6235 24.9771 22.6016 24.689 22.6016 24.4106ZM22.8579 21.1807L22.8726 22.272H21.6055C21.2783 22.272 20.9902 22.3037 20.7412 22.3672C20.4922 22.4258 20.2847 22.5137 20.1187 22.6309C19.9526 22.748 19.8281 22.8896 19.7451 23.0557C19.6621 23.2217 19.6206 23.4097 19.6206 23.6196C19.6206 23.8296 19.6694 24.0225 19.7671 24.1982C19.8647 24.3691 20.0063 24.5034 20.1919 24.6011C20.3823 24.6987 20.6118 24.7476 20.8804 24.7476C21.2417 24.7476 21.5566 24.6743 21.8252 24.5278C22.0986 24.3765 22.3135 24.1934 22.4697 23.9785C22.626 23.7588 22.709 23.5513 22.7188 23.356L23.29 24.1396C23.2314 24.3398 23.1313 24.5547 22.9897 24.7842C22.8481 25.0137 22.6626 25.2334 22.4331 25.4434C22.2085 25.6484 21.9375 25.8169 21.6201 25.9487C21.3076 26.0806 20.9463 26.1465 20.5361 26.1465C20.0186 26.1465 19.5571 26.0439 19.1519 25.8389C18.7466 25.6289 18.4292 25.3481 18.1997 24.9966C17.9702 24.6401 17.8555 24.2373 17.8555 23.7881C17.8555 23.3682 17.9336 22.9971 18.0898 22.6748C18.251 22.3477 18.4854 22.0742 18.793 21.8545C19.1055 21.6348 19.4863 21.4688 19.9355 21.3564C20.3848 21.2393 20.8975 21.1807 21.4736 21.1807H22.8579ZM28.7807 24.6011L30.7216 18.0752H32.5526L29.7987 26H28.6562L28.7807 24.6011ZM27.2938 18.0752L29.2714 24.6304L29.3666 26H28.224L25.4555 18.0752H27.2938ZM33.2898 22.1255V21.957C33.2898 21.3857 33.3729 20.856 33.5389 20.3677C33.7049 19.8745 33.9441 19.4473 34.2566 19.0859C34.574 18.7197 34.9598 18.4365 35.4139 18.2363C35.8729 18.0312 36.3904 17.9287 36.9666 17.9287C37.5477 17.9287 38.0652 18.0312 38.5193 18.2363C38.9783 18.4365 39.3665 18.7197 39.6839 19.0859C40.0013 19.4473 40.243 19.8745 40.409 20.3677C40.575 20.856 40.658 21.3857 40.658 21.957V22.1255C40.658 22.6968 40.575 23.2266 40.409 23.7148C40.243 24.2031 40.0013 24.6304 39.6839 24.9966C39.3665 25.3579 38.9808 25.6411 38.5267 25.8462C38.0726 26.0464 37.5574 26.1465 36.9813 26.1465C36.4002 26.1465 35.8802 26.0464 35.4212 25.8462C34.9671 25.6411 34.5813 25.3579 34.264 24.9966C33.9466 24.6304 33.7049 24.2031 33.5389 23.7148C33.3729 23.2266 33.2898 22.6968 33.2898 22.1255ZM35.055 21.957V22.1255C35.055 22.4819 35.0916 22.8188 35.1648 23.1362C35.2381 23.4536 35.3528 23.7319 35.5091 23.9712C35.6653 24.2104 35.8655 24.3984 36.1097 24.5352C36.3538 24.6719 36.6443 24.7402 36.9813 24.7402C37.3084 24.7402 37.5916 24.6719 37.8309 24.5352C38.075 24.3984 38.2752 24.2104 38.4314 23.9712C38.5877 23.7319 38.7024 23.4536 38.7757 23.1362C38.8538 22.8188 38.8929 22.4819 38.8929 22.1255V21.957C38.8929 21.6055 38.8538 21.2734 38.7757 20.9609C38.7024 20.6436 38.5853 20.3628 38.4241 20.1187C38.2679 19.8745 38.0677 19.6841 37.8235 19.5474C37.5843 19.4058 37.2986 19.335 36.9666 19.335C36.6346 19.335 36.3465 19.4058 36.1023 19.5474C35.8631 19.6841 35.6653 19.8745 35.5091 20.1187C35.3528 20.3628 35.2381 20.6436 35.1648 20.9609C35.0916 21.2734 35.055 21.6055 35.055 21.957ZM44.1272 14.75V26H42.3547V14.75H44.1272ZM50.6285 24.4106V20.6313C50.6285 20.3481 50.5772 20.104 50.4747 19.8989C50.3722 19.6938 50.2159 19.5352 50.006 19.4229C49.8009 19.3105 49.5421 19.2544 49.2296 19.2544C48.9415 19.2544 48.6925 19.3032 48.4825 19.4009C48.2726 19.4985 48.109 19.6304 47.9918 19.7964C47.8746 19.9624 47.816 20.1504 47.816 20.3604H46.0582C46.0582 20.0479 46.1339 19.7451 46.2853 19.4521C46.4366 19.1592 46.6563 18.8979 46.9444 18.6685C47.2325 18.439 47.5768 18.2583 47.9771 18.1265C48.3775 17.9946 48.8268 17.9287 49.3248 17.9287C49.9205 17.9287 50.4479 18.0288 50.9068 18.229C51.3707 18.4292 51.7345 18.7319 51.9981 19.1372C52.2667 19.5376 52.401 20.0405 52.401 20.646V24.1689C52.401 24.5303 52.4254 24.855 52.4742 25.1431C52.5279 25.4263 52.6036 25.6729 52.7013 25.8828V26H50.8922C50.8092 25.8096 50.7433 25.5679 50.6944 25.2749C50.6505 24.9771 50.6285 24.689 50.6285 24.4106ZM50.8849 21.1807L50.8995 22.272H49.6324C49.3053 22.272 49.0172 22.3037 48.7682 22.3672C48.5191 22.4258 48.3116 22.5137 48.1456 22.6309C47.9796 22.748 47.8551 22.8896 47.7721 23.0557C47.6891 23.2217 47.6476 23.4097 47.6476 23.6196C47.6476 23.8296 47.6964 24.0225 47.794 24.1982C47.8917 24.3691 48.0333 24.5034 48.2188 24.6011C48.4093 24.6987 48.6388 24.7476 48.9073 24.7476C49.2687 24.7476 49.5836 24.6743 49.8521 24.5278C50.1256 24.3765 50.3404 24.1934 50.4967 23.9785C50.6529 23.7588 50.7359 23.5513 50.7457 23.356L51.317 24.1396C51.2584 24.3398 51.1583 24.5547 51.0167 24.7842C50.8751 25.0137 50.6896 25.2334 50.4601 25.4434C50.2355 25.6484 49.9645 25.8169 49.6471 25.9487C49.3346 26.0806 48.9732 26.1465 48.5631 26.1465C48.0455 26.1465 47.5841 26.0439 47.1788 25.8389C46.7735 25.6289 46.4562 25.3481 46.2267 24.9966C45.9972 24.6401 45.8824 24.2373 45.8824 23.7881C45.8824 23.3682 45.9605 22.9971 46.1168 22.6748C46.2779 22.3477 46.5123 22.0742 46.8199 21.8545C47.1324 21.6348 47.5133 21.4688 47.9625 21.3564C48.4117 21.2393 48.9244 21.1807 49.5006 21.1807H50.8849ZM60.1962 15.3359V26H58.3578V15.3359H60.1962ZM64.5468 20.0015V21.459H59.7274V20.0015H64.5468ZM65.1547 15.3359V16.8008H59.7274V15.3359H65.1547ZM68.1258 19.584V26H66.3606V18.0752H68.0452L68.1258 19.584ZM70.5501 18.0239L70.5354 19.6646C70.428 19.645 70.3108 19.6304 70.1839 19.6206C70.0618 19.6108 69.9397 19.606 69.8177 19.606C69.5149 19.606 69.2488 19.6499 69.0193 19.7378C68.7898 19.8208 68.597 19.9429 68.4407 20.104C68.2894 20.2603 68.1722 20.4507 68.0892 20.6753C68.0062 20.8999 67.9573 21.1514 67.9427 21.4297L67.5398 21.459C67.5398 20.9609 67.5887 20.4995 67.6863 20.0747C67.784 19.6499 67.9305 19.2764 68.1258 18.9541C68.326 18.6318 68.575 18.3804 68.8729 18.1997C69.1756 18.019 69.5247 17.9287 69.9202 17.9287C70.0276 17.9287 70.1424 17.9385 70.2645 17.958C70.3914 17.9775 70.4866 17.9995 70.5501 18.0239ZM75.1032 26.1465C74.5173 26.1465 73.9875 26.0513 73.5139 25.8608C73.0451 25.6655 72.6447 25.3945 72.3127 25.0479C71.9855 24.7012 71.7341 24.2935 71.5583 23.8247C71.3825 23.356 71.2946 22.8506 71.2946 22.3086V22.0156C71.2946 21.3955 71.385 20.834 71.5656 20.3311C71.7463 19.8281 71.9978 19.3984 72.32 19.042C72.6423 18.6807 73.0231 18.4048 73.4626 18.2144C73.9021 18.0239 74.3781 17.9287 74.8908 17.9287C75.4572 17.9287 75.9528 18.0239 76.3776 18.2144C76.8024 18.4048 77.154 18.6733 77.4323 19.02C77.7155 19.3618 77.9255 19.7695 78.0622 20.2432C78.2038 20.7168 78.2746 21.2393 78.2746 21.8105V22.5649H72.1516V21.2979H76.5314V21.1587C76.5217 20.8413 76.4582 20.5435 76.341 20.2651C76.2287 19.9868 76.0554 19.7622 75.821 19.5913C75.5866 19.4204 75.2741 19.335 74.8835 19.335C74.5905 19.335 74.3293 19.3984 74.0998 19.5254C73.8752 19.6475 73.6872 19.8257 73.5358 20.0601C73.3845 20.2944 73.2673 20.5776 73.1843 20.9097C73.1062 21.2368 73.0671 21.6055 73.0671 22.0156V22.3086C73.0671 22.6553 73.1135 22.9775 73.2063 23.2754C73.3039 23.5684 73.4455 23.8247 73.6311 24.0444C73.8166 24.2642 74.0412 24.4375 74.3049 24.5645C74.5686 24.6865 74.8689 24.7476 75.2058 24.7476C75.6306 24.7476 76.009 24.6621 76.341 24.4912C76.673 24.3203 76.9611 24.0786 77.2053 23.7661L78.1355 24.667C77.9646 24.916 77.7424 25.1553 77.4689 25.3848C77.1955 25.6094 76.861 25.7925 76.4655 25.9341C76.0749 26.0757 75.6208 26.1465 75.1032 26.1465ZM84.5855 24.3594V14.75H86.358V26H84.754L84.5855 24.3594ZM79.4293 22.1255V21.9717C79.4293 21.3711 79.5001 20.8242 79.6417 20.3311C79.7833 19.833 79.9884 19.4058 80.2569 19.0493C80.5255 18.688 80.8526 18.4121 81.2384 18.2217C81.6241 18.0264 82.0587 17.9287 82.5421 17.9287C83.0206 17.9287 83.4405 18.0215 83.8019 18.207C84.1632 18.3926 84.4708 18.6587 84.7247 19.0054C84.9786 19.3472 85.1813 19.7573 85.3326 20.2358C85.484 20.7095 85.5914 21.2368 85.6549 21.8179V22.3086C85.5914 22.875 85.484 23.3926 85.3326 23.8613C85.1813 24.3301 84.9786 24.7354 84.7247 25.0771C84.4708 25.4189 84.1607 25.6826 83.7945 25.8682C83.4332 26.0537 83.0108 26.1465 82.5274 26.1465C82.0489 26.1465 81.6168 26.0464 81.2311 25.8462C80.8502 25.646 80.5255 25.3652 80.2569 25.0039C79.9884 24.6426 79.7833 24.2178 79.6417 23.7295C79.5001 23.2363 79.4293 22.7017 79.4293 22.1255ZM81.1944 21.9717V22.1255C81.1944 22.4868 81.2262 22.8237 81.2896 23.1362C81.358 23.4487 81.463 23.7246 81.6046 23.9639C81.7462 24.1982 81.9293 24.3838 82.1539 24.5205C82.3834 24.6523 82.6568 24.7183 82.9742 24.7183C83.3746 24.7183 83.7042 24.6304 83.963 24.4546C84.2218 24.2788 84.4244 24.042 84.5709 23.7441C84.7223 23.4414 84.8248 23.1045 84.8785 22.7334V21.4077C84.8492 21.1196 84.7882 20.8511 84.6954 20.6021C84.6075 20.353 84.4879 20.1357 84.3365 19.9502C84.1852 19.7598 83.9972 19.6133 83.7726 19.5107C83.5528 19.4033 83.2916 19.3496 82.9889 19.3496C82.6666 19.3496 82.3932 19.418 82.1686 19.5547C81.9439 19.6914 81.7584 19.8794 81.6119 20.1187C81.4703 20.3579 81.3653 20.6362 81.297 20.9536C81.2286 21.271 81.1944 21.6104 81.1944 21.9717ZM93.1377 24.3594V14.75H94.9102V26H93.3062L93.1377 24.3594ZM87.9814 22.1255V21.9717C87.9814 21.3711 88.0522 20.8242 88.1938 20.3311C88.3354 19.833 88.5405 19.4058 88.8091 19.0493C89.0776 18.688 89.4048 18.4121 89.7905 18.2217C90.1763 18.0264 90.6108 17.9287 91.0942 17.9287C91.5728 17.9287 91.9927 18.0215 92.354 18.207C92.7153 18.3926 93.0229 18.6587 93.2769 19.0054C93.5308 19.3472 93.7334 19.7573 93.8848 20.2358C94.0361 20.7095 94.1436 21.2368 94.207 21.8179V22.3086C94.1436 22.875 94.0361 23.3926 93.8848 23.8613C93.7334 24.3301 93.5308 24.7354 93.2769 25.0771C93.0229 25.4189 92.7129 25.6826 92.3467 25.8682C91.9854 26.0537 91.563 26.1465 91.0796 26.1465C90.6011 26.1465 90.1689 26.0464 89.7832 25.8462C89.4023 25.646 89.0776 25.3652 88.8091 25.0039C88.5405 24.6426 88.3354 24.2178 88.1938 23.7295C88.0522 23.2363 87.9814 22.7017 87.9814 22.1255ZM89.7466 21.9717V22.1255C89.7466 22.4868 89.7783 22.8237 89.8418 23.1362C89.9102 23.4487 90.0151 23.7246 90.1567 23.9639C90.2983 24.1982 90.4814 24.3838 90.7061 24.5205C90.9355 24.6523 91.209 24.7183 91.5264 24.7183C91.9268 24.7183 92.2563 24.6304 92.5151 24.4546C92.7739 24.2788 92.9766 24.042 93.123 23.7441C93.2744 23.4414 93.377 23.1045 93.4307 22.7334V21.4077C93.4014 21.1196 93.3403 20.8511 93.2476 20.6021C93.1597 20.353 93.04 20.1357 92.8887 19.9502C92.7373 19.7598 92.5493 19.6133 92.3247 19.5107C92.105 19.4033 91.8438 19.3496 91.541 19.3496C91.2188 19.3496 90.9453 19.418 90.7207 19.5547C90.4961 19.6914 90.3105 19.8794 90.1641 20.1187C90.0225 20.3579 89.9175 20.6362 89.8491 20.9536C89.7808 21.271 89.7466 21.6104 89.7466 21.9717ZM101.324 24.4106V20.6313C101.324 20.3481 101.272 20.104 101.17 19.8989C101.067 19.6938 100.911 19.5352 100.701 19.4229C100.496 19.3105 100.237 19.2544 99.9247 19.2544C99.6366 19.2544 99.3876 19.3032 99.1776 19.4009C98.9677 19.4985 98.8041 19.6304 98.6869 19.7964C98.5697 19.9624 98.5111 20.1504 98.5111 20.3604H96.7533C96.7533 20.0479 96.829 19.7451 96.9804 19.4521C97.1317 19.1592 97.3515 18.8979 97.6395 18.6685C97.9276 18.439 98.2719 18.2583 98.6723 18.1265C99.0727 17.9946 99.5219 17.9287 100.02 17.9287C100.616 17.9287 101.143 18.0288 101.602 18.229C102.066 18.4292 102.43 18.7319 102.693 19.1372C102.962 19.5376 103.096 20.0405 103.096 20.646V24.1689C103.096 24.5303 103.121 24.855 103.169 25.1431C103.223 25.4263 103.299 25.6729 103.396 25.8828V26H101.587C101.504 25.8096 101.438 25.5679 101.39 25.2749C101.346 24.9771 101.324 24.689 101.324 24.4106ZM101.58 21.1807L101.595 22.272H100.328C100 22.272 99.7123 22.3037 99.4633 22.3672C99.2143 22.4258 99.0067 22.5137 98.8407 22.6309C98.6747 22.748 98.5502 22.8896 98.4672 23.0557C98.3842 23.2217 98.3427 23.4097 98.3427 23.6196C98.3427 23.8296 98.3915 24.0225 98.4892 24.1982C98.5868 24.3691 98.7284 24.5034 98.914 24.6011C99.1044 24.6987 99.3339 24.7476 99.6024 24.7476C99.9638 24.7476 100.279 24.6743 100.547 24.5278C100.821 24.3765 101.036 24.1934 101.192 23.9785C101.348 23.7588 101.431 23.5513 101.441 23.356L102.012 24.1396C101.954 24.3398 101.853 24.5547 101.712 24.7842C101.57 25.0137 101.385 25.2334 101.155 25.4434C100.931 25.6484 100.66 25.8169 100.342 25.9487C100.03 26.0806 99.6684 26.1465 99.2582 26.1465C98.7406 26.1465 98.2792 26.0439 97.8739 25.8389C97.4687 25.6289 97.1513 25.3481 96.9218 24.9966C96.6923 24.6401 96.5775 24.2373 96.5775 23.7881C96.5775 23.3682 96.6557 22.9971 96.8119 22.6748C96.973 22.3477 97.2074 22.0742 97.515 21.8545C97.8275 21.6348 98.2084 21.4688 98.6576 21.3564C99.1068 21.2393 99.6195 21.1807 100.196 21.1807H101.58Z" fill="white"/>
<defs>
<filter id="filter0_d_10_6" x="0.9" y="0.9" width="111.2" height="48.2" filterUnits="userSpaceOnUse" color-interpolation-filters="sRGB">
<feFlood flood-opacity="0" result="BackgroundImageFix"/>
<feColorMatrix in="SourceAlpha" type="matrix" values="0 0 0 0 0 0 0 0 0 0 0 0 0 0 0 0 0 0 127 0" result="hardAlpha"/>
<feMorphology radius="4" operator="erode" in="SourceAlpha" result="effect1_dropShadow_10_6"/>
<feOffset dy="4"/>
<feGaussianBlur stdDeviation="4.05"/>
<feComposite in2="hardAlpha" operator="out"/>
<feColorMatrix type="matrix" values="0 0 0 0 1 0 0 0 0 1 0 0 0 0 1 0 0 0 0.44 0"/>
<feBlend mode="normal" in2="BackgroundImageFix" result="effect1_dropShadow_10_6"/>
<feBlend mode="normal" in="SourceGraphic" in2="effect1_dropShadow_10_6" result="shape"/>
</filter>
</defs>
</svg>
